%TF.GenerationSoftware,KiCad,Pcbnew,(5.1.6)-1*%
%TF.CreationDate,2022-09-21T11:03:18-04:00*%
%TF.ProjectId,Amiga-CR1220,416d6967-612d-4435-9231-3232302e6b69,rev?*%
%TF.SameCoordinates,Original*%
%TF.FileFunction,Copper,L1,Top*%
%TF.FilePolarity,Positive*%
%FSLAX46Y46*%
G04 Gerber Fmt 4.6, Leading zero omitted, Abs format (unit mm)*
G04 Created by KiCad (PCBNEW (5.1.6)-1) date 2022-09-21 11:03:18*
%MOMM*%
%LPD*%
G01*
G04 APERTURE LIST*
%TA.AperFunction,SMDPad,CuDef*%
%ADD10R,2.600000X3.500000*%
%TD*%
%TA.AperFunction,ComponentPad*%
%ADD11R,1.700000X1.700000*%
%TD*%
%TA.AperFunction,SMDPad,CuDef*%
%ADD12C,1.500000*%
%TD*%
%TA.AperFunction,ViaPad*%
%ADD13C,0.800000*%
%TD*%
%TA.AperFunction,Conductor*%
%ADD14C,0.500000*%
%TD*%
%TA.AperFunction,Conductor*%
%ADD15C,0.254000*%
%TD*%
G04 APERTURE END LIST*
D10*
%TO.P,U1,1*%
%TO.N,+3V0*%
X149950000Y-117000000D03*
%TO.P,U1,2*%
%TO.N,GND*%
X171050000Y-117000000D03*
%TD*%
D11*
%TO.P,J1,1*%
%TO.N,Net-(J1-Pad1)*%
X148500000Y-112000000D03*
%TD*%
%TO.P,J3,1*%
%TO.N,GND*%
X168500000Y-117000000D03*
%TD*%
D12*
%TO.P,3V,1*%
%TO.N,+3V0*%
X151750000Y-122000000D03*
%TD*%
%TO.P,GND,1*%
%TO.N,GND*%
X151750000Y-112000000D03*
%TD*%
D11*
%TO.P,J2,1*%
%TO.N,Net-(J1-Pad1)*%
X148500000Y-122000000D03*
%TD*%
D13*
%TO.N,+3V0*%
X152000000Y-117000000D03*
%TD*%
D14*
%TO.N,+3V0*%
X149950000Y-117000000D02*
X152000000Y-117000000D01*
X151750000Y-122000000D02*
X150000000Y-120250000D01*
X150000000Y-117050000D02*
X149950000Y-117000000D01*
X150000000Y-120250000D02*
X150000000Y-117050000D01*
%TD*%
D15*
%TO.N,GND*%
G36*
X151161595Y-110974064D02*
G01*
X151084313Y-111154708D01*
X151750000Y-111820395D01*
X152415687Y-111154708D01*
X152338405Y-110974064D01*
X152289335Y-110952000D01*
X157548000Y-110952000D01*
X157548001Y-111977785D01*
X157545813Y-112000000D01*
X157554540Y-112088607D01*
X157580386Y-112173810D01*
X157622357Y-112252333D01*
X157678841Y-112321159D01*
X157747667Y-112377643D01*
X157826190Y-112419614D01*
X157911393Y-112445460D01*
X157977795Y-112452000D01*
X158000000Y-112454187D01*
X158022205Y-112452000D01*
X162977795Y-112452000D01*
X163000000Y-112454187D01*
X163022205Y-112452000D01*
X163088607Y-112445460D01*
X163173810Y-112419614D01*
X163252333Y-112377643D01*
X163321159Y-112321159D01*
X163377643Y-112252333D01*
X163419614Y-112173810D01*
X163445460Y-112088607D01*
X163454187Y-112000000D01*
X163452000Y-111977795D01*
X163452000Y-111231351D01*
X168792341Y-113901521D01*
X168826190Y-113919614D01*
X168853446Y-113927882D01*
X168880036Y-113938057D01*
X168895943Y-113940773D01*
X168911393Y-113945460D01*
X168939739Y-113948252D01*
X168967803Y-113953044D01*
X169006136Y-113952000D01*
X170548001Y-113952000D01*
X170548000Y-114822480D01*
X169750000Y-114820934D01*
X169666293Y-114829178D01*
X169585804Y-114853595D01*
X169511624Y-114893245D01*
X169446605Y-114946605D01*
X169393245Y-115011624D01*
X169353595Y-115085804D01*
X169329178Y-115166293D01*
X169320934Y-115250000D01*
X169321576Y-115721029D01*
X168733750Y-115723000D01*
X168627000Y-115829750D01*
X168627000Y-116873000D01*
X170923000Y-116873000D01*
X170923000Y-116853000D01*
X171177000Y-116853000D01*
X171177000Y-116873000D01*
X171197000Y-116873000D01*
X171197000Y-117127000D01*
X171177000Y-117127000D01*
X171177000Y-117147000D01*
X170923000Y-117147000D01*
X170923000Y-117127000D01*
X168627000Y-117127000D01*
X168627000Y-118170250D01*
X168733750Y-118277000D01*
X169321576Y-118278971D01*
X169320934Y-118750000D01*
X169329178Y-118833707D01*
X169353595Y-118914196D01*
X169393245Y-118988376D01*
X169446605Y-119053395D01*
X169511624Y-119106755D01*
X169585804Y-119146405D01*
X169666293Y-119170822D01*
X169750000Y-119179066D01*
X170548000Y-119177520D01*
X170548001Y-120048000D01*
X169006136Y-120048000D01*
X168967803Y-120046956D01*
X168939739Y-120051748D01*
X168911393Y-120054540D01*
X168895943Y-120059227D01*
X168880036Y-120061943D01*
X168853446Y-120072118D01*
X168826190Y-120080386D01*
X168792341Y-120098479D01*
X163452000Y-122768649D01*
X163452000Y-122022205D01*
X163454187Y-122000000D01*
X163445460Y-121911393D01*
X163419614Y-121826190D01*
X163377643Y-121747667D01*
X163321159Y-121678841D01*
X163252333Y-121622357D01*
X163173810Y-121580386D01*
X163088607Y-121554540D01*
X163022205Y-121548000D01*
X163000000Y-121545813D01*
X162977795Y-121548000D01*
X158022205Y-121548000D01*
X158000000Y-121545813D01*
X157977795Y-121548000D01*
X157911393Y-121554540D01*
X157826190Y-121580386D01*
X157747667Y-121622357D01*
X157678841Y-121678841D01*
X157622357Y-121747667D01*
X157580386Y-121826190D01*
X157554540Y-121911393D01*
X157545813Y-122000000D01*
X157548001Y-122022215D01*
X157548000Y-123048000D01*
X152295554Y-123048000D01*
X152307519Y-123043044D01*
X152500294Y-122914236D01*
X152664236Y-122750294D01*
X152793044Y-122557519D01*
X152881769Y-122343318D01*
X152927000Y-122115924D01*
X152927000Y-121884076D01*
X152881769Y-121656682D01*
X152793044Y-121442481D01*
X152664236Y-121249706D01*
X152500294Y-121085764D01*
X152307519Y-120956956D01*
X152093318Y-120868231D01*
X151865924Y-120823000D01*
X151634076Y-120823000D01*
X151547620Y-120840197D01*
X150677000Y-119969578D01*
X150677000Y-119179066D01*
X151250000Y-119179066D01*
X151333707Y-119170822D01*
X151414196Y-119146405D01*
X151488376Y-119106755D01*
X151553395Y-119053395D01*
X151606755Y-118988376D01*
X151646405Y-118914196D01*
X151670822Y-118833707D01*
X151679066Y-118750000D01*
X151679066Y-117850000D01*
X167220934Y-117850000D01*
X167229178Y-117933707D01*
X167253595Y-118014196D01*
X167293245Y-118088376D01*
X167346605Y-118153395D01*
X167411624Y-118206755D01*
X167485804Y-118246405D01*
X167566293Y-118270822D01*
X167650000Y-118279066D01*
X168266250Y-118277000D01*
X168373000Y-118170250D01*
X168373000Y-117127000D01*
X167329750Y-117127000D01*
X167223000Y-117233750D01*
X167220934Y-117850000D01*
X151679066Y-117850000D01*
X151679066Y-117762202D01*
X151758773Y-117795218D01*
X151918548Y-117827000D01*
X152081452Y-117827000D01*
X152241227Y-117795218D01*
X152391731Y-117732877D01*
X152527181Y-117642372D01*
X152642372Y-117527181D01*
X152732877Y-117391731D01*
X152795218Y-117241227D01*
X152827000Y-117081452D01*
X152827000Y-116918548D01*
X152795218Y-116758773D01*
X152732877Y-116608269D01*
X152642372Y-116472819D01*
X152527181Y-116357628D01*
X152391731Y-116267123D01*
X152241227Y-116204782D01*
X152081452Y-116173000D01*
X151918548Y-116173000D01*
X151758773Y-116204782D01*
X151679066Y-116237798D01*
X151679066Y-116150000D01*
X167220934Y-116150000D01*
X167223000Y-116766250D01*
X167329750Y-116873000D01*
X168373000Y-116873000D01*
X168373000Y-115829750D01*
X168266250Y-115723000D01*
X167650000Y-115720934D01*
X167566293Y-115729178D01*
X167485804Y-115753595D01*
X167411624Y-115793245D01*
X167346605Y-115846605D01*
X167293245Y-115911624D01*
X167253595Y-115985804D01*
X167229178Y-116066293D01*
X167220934Y-116150000D01*
X151679066Y-116150000D01*
X151679066Y-115250000D01*
X151670822Y-115166293D01*
X151646405Y-115085804D01*
X151606755Y-115011624D01*
X151553395Y-114946605D01*
X151488376Y-114893245D01*
X151414196Y-114853595D01*
X151333707Y-114829178D01*
X151250000Y-114820934D01*
X148650000Y-114820934D01*
X148566293Y-114829178D01*
X148485804Y-114853595D01*
X148411624Y-114893245D01*
X148346605Y-114946605D01*
X148293245Y-115011624D01*
X148253595Y-115085804D01*
X148229178Y-115166293D01*
X148220934Y-115250000D01*
X148220934Y-118750000D01*
X148229178Y-118833707D01*
X148253595Y-118914196D01*
X148293245Y-118988376D01*
X148346605Y-119053395D01*
X148411624Y-119106755D01*
X148485804Y-119146405D01*
X148566293Y-119170822D01*
X148650000Y-119179066D01*
X149323000Y-119179066D01*
X149323000Y-120216755D01*
X149319726Y-120250000D01*
X149323000Y-120283245D01*
X149323000Y-120283251D01*
X149332796Y-120382714D01*
X149371508Y-120510329D01*
X149434372Y-120627940D01*
X149518973Y-120731026D01*
X149544800Y-120752222D01*
X149582891Y-120790313D01*
X149514196Y-120753595D01*
X149433707Y-120729178D01*
X149350000Y-120720934D01*
X147650000Y-120720934D01*
X147566293Y-120729178D01*
X147485804Y-120753595D01*
X147452000Y-120771664D01*
X147452000Y-113228336D01*
X147485804Y-113246405D01*
X147566293Y-113270822D01*
X147650000Y-113279066D01*
X149350000Y-113279066D01*
X149433707Y-113270822D01*
X149514196Y-113246405D01*
X149588376Y-113206755D01*
X149653395Y-113153395D01*
X149706755Y-113088376D01*
X149746405Y-113014196D01*
X149770822Y-112933707D01*
X149779066Y-112850000D01*
X149779066Y-112845292D01*
X151084313Y-112845292D01*
X151161595Y-113025936D01*
X151373051Y-113121015D01*
X151598992Y-113173014D01*
X151830738Y-113179936D01*
X152059380Y-113141512D01*
X152276133Y-113059221D01*
X152338405Y-113025936D01*
X152415687Y-112845292D01*
X151750000Y-112179605D01*
X151084313Y-112845292D01*
X149779066Y-112845292D01*
X149779066Y-112080738D01*
X150570064Y-112080738D01*
X150608488Y-112309380D01*
X150690779Y-112526133D01*
X150724064Y-112588405D01*
X150904708Y-112665687D01*
X151570395Y-112000000D01*
X151929605Y-112000000D01*
X152595292Y-112665687D01*
X152775936Y-112588405D01*
X152871015Y-112376949D01*
X152923014Y-112151008D01*
X152929936Y-111919262D01*
X152891512Y-111690620D01*
X152809221Y-111473867D01*
X152775936Y-111411595D01*
X152595292Y-111334313D01*
X151929605Y-112000000D01*
X151570395Y-112000000D01*
X150904708Y-111334313D01*
X150724064Y-111411595D01*
X150628985Y-111623051D01*
X150576986Y-111848992D01*
X150570064Y-112080738D01*
X149779066Y-112080738D01*
X149779066Y-111150000D01*
X149770822Y-111066293D01*
X149746405Y-110985804D01*
X149728336Y-110952000D01*
X151202874Y-110952000D01*
X151161595Y-110974064D01*
G37*
X151161595Y-110974064D02*
X151084313Y-111154708D01*
X151750000Y-111820395D01*
X152415687Y-111154708D01*
X152338405Y-110974064D01*
X152289335Y-110952000D01*
X157548000Y-110952000D01*
X157548001Y-111977785D01*
X157545813Y-112000000D01*
X157554540Y-112088607D01*
X157580386Y-112173810D01*
X157622357Y-112252333D01*
X157678841Y-112321159D01*
X157747667Y-112377643D01*
X157826190Y-112419614D01*
X157911393Y-112445460D01*
X157977795Y-112452000D01*
X158000000Y-112454187D01*
X158022205Y-112452000D01*
X162977795Y-112452000D01*
X163000000Y-112454187D01*
X163022205Y-112452000D01*
X163088607Y-112445460D01*
X163173810Y-112419614D01*
X163252333Y-112377643D01*
X163321159Y-112321159D01*
X163377643Y-112252333D01*
X163419614Y-112173810D01*
X163445460Y-112088607D01*
X163454187Y-112000000D01*
X163452000Y-111977795D01*
X163452000Y-111231351D01*
X168792341Y-113901521D01*
X168826190Y-113919614D01*
X168853446Y-113927882D01*
X168880036Y-113938057D01*
X168895943Y-113940773D01*
X168911393Y-113945460D01*
X168939739Y-113948252D01*
X168967803Y-113953044D01*
X169006136Y-113952000D01*
X170548001Y-113952000D01*
X170548000Y-114822480D01*
X169750000Y-114820934D01*
X169666293Y-114829178D01*
X169585804Y-114853595D01*
X169511624Y-114893245D01*
X169446605Y-114946605D01*
X169393245Y-115011624D01*
X169353595Y-115085804D01*
X169329178Y-115166293D01*
X169320934Y-115250000D01*
X169321576Y-115721029D01*
X168733750Y-115723000D01*
X168627000Y-115829750D01*
X168627000Y-116873000D01*
X170923000Y-116873000D01*
X170923000Y-116853000D01*
X171177000Y-116853000D01*
X171177000Y-116873000D01*
X171197000Y-116873000D01*
X171197000Y-117127000D01*
X171177000Y-117127000D01*
X171177000Y-117147000D01*
X170923000Y-117147000D01*
X170923000Y-117127000D01*
X168627000Y-117127000D01*
X168627000Y-118170250D01*
X168733750Y-118277000D01*
X169321576Y-118278971D01*
X169320934Y-118750000D01*
X169329178Y-118833707D01*
X169353595Y-118914196D01*
X169393245Y-118988376D01*
X169446605Y-119053395D01*
X169511624Y-119106755D01*
X169585804Y-119146405D01*
X169666293Y-119170822D01*
X169750000Y-119179066D01*
X170548000Y-119177520D01*
X170548001Y-120048000D01*
X169006136Y-120048000D01*
X168967803Y-120046956D01*
X168939739Y-120051748D01*
X168911393Y-120054540D01*
X168895943Y-120059227D01*
X168880036Y-120061943D01*
X168853446Y-120072118D01*
X168826190Y-120080386D01*
X168792341Y-120098479D01*
X163452000Y-122768649D01*
X163452000Y-122022205D01*
X163454187Y-122000000D01*
X163445460Y-121911393D01*
X163419614Y-121826190D01*
X163377643Y-121747667D01*
X163321159Y-121678841D01*
X163252333Y-121622357D01*
X163173810Y-121580386D01*
X163088607Y-121554540D01*
X163022205Y-121548000D01*
X163000000Y-121545813D01*
X162977795Y-121548000D01*
X158022205Y-121548000D01*
X158000000Y-121545813D01*
X157977795Y-121548000D01*
X157911393Y-121554540D01*
X157826190Y-121580386D01*
X157747667Y-121622357D01*
X157678841Y-121678841D01*
X157622357Y-121747667D01*
X157580386Y-121826190D01*
X157554540Y-121911393D01*
X157545813Y-122000000D01*
X157548001Y-122022215D01*
X157548000Y-123048000D01*
X152295554Y-123048000D01*
X152307519Y-123043044D01*
X152500294Y-122914236D01*
X152664236Y-122750294D01*
X152793044Y-122557519D01*
X152881769Y-122343318D01*
X152927000Y-122115924D01*
X152927000Y-121884076D01*
X152881769Y-121656682D01*
X152793044Y-121442481D01*
X152664236Y-121249706D01*
X152500294Y-121085764D01*
X152307519Y-120956956D01*
X152093318Y-120868231D01*
X151865924Y-120823000D01*
X151634076Y-120823000D01*
X151547620Y-120840197D01*
X150677000Y-119969578D01*
X150677000Y-119179066D01*
X151250000Y-119179066D01*
X151333707Y-119170822D01*
X151414196Y-119146405D01*
X151488376Y-119106755D01*
X151553395Y-119053395D01*
X151606755Y-118988376D01*
X151646405Y-118914196D01*
X151670822Y-118833707D01*
X151679066Y-118750000D01*
X151679066Y-117850000D01*
X167220934Y-117850000D01*
X167229178Y-117933707D01*
X167253595Y-118014196D01*
X167293245Y-118088376D01*
X167346605Y-118153395D01*
X167411624Y-118206755D01*
X167485804Y-118246405D01*
X167566293Y-118270822D01*
X167650000Y-118279066D01*
X168266250Y-118277000D01*
X168373000Y-118170250D01*
X168373000Y-117127000D01*
X167329750Y-117127000D01*
X167223000Y-117233750D01*
X167220934Y-117850000D01*
X151679066Y-117850000D01*
X151679066Y-117762202D01*
X151758773Y-117795218D01*
X151918548Y-117827000D01*
X152081452Y-117827000D01*
X152241227Y-117795218D01*
X152391731Y-117732877D01*
X152527181Y-117642372D01*
X152642372Y-117527181D01*
X152732877Y-117391731D01*
X152795218Y-117241227D01*
X152827000Y-117081452D01*
X152827000Y-116918548D01*
X152795218Y-116758773D01*
X152732877Y-116608269D01*
X152642372Y-116472819D01*
X152527181Y-116357628D01*
X152391731Y-116267123D01*
X152241227Y-116204782D01*
X152081452Y-116173000D01*
X151918548Y-116173000D01*
X151758773Y-116204782D01*
X151679066Y-116237798D01*
X151679066Y-116150000D01*
X167220934Y-116150000D01*
X167223000Y-116766250D01*
X167329750Y-116873000D01*
X168373000Y-116873000D01*
X168373000Y-115829750D01*
X168266250Y-115723000D01*
X167650000Y-115720934D01*
X167566293Y-115729178D01*
X167485804Y-115753595D01*
X167411624Y-115793245D01*
X167346605Y-115846605D01*
X167293245Y-115911624D01*
X167253595Y-115985804D01*
X167229178Y-116066293D01*
X167220934Y-116150000D01*
X151679066Y-116150000D01*
X151679066Y-115250000D01*
X151670822Y-115166293D01*
X151646405Y-115085804D01*
X151606755Y-115011624D01*
X151553395Y-114946605D01*
X151488376Y-114893245D01*
X151414196Y-114853595D01*
X151333707Y-114829178D01*
X151250000Y-114820934D01*
X148650000Y-114820934D01*
X148566293Y-114829178D01*
X148485804Y-114853595D01*
X148411624Y-114893245D01*
X148346605Y-114946605D01*
X148293245Y-115011624D01*
X148253595Y-115085804D01*
X148229178Y-115166293D01*
X148220934Y-115250000D01*
X148220934Y-118750000D01*
X148229178Y-118833707D01*
X148253595Y-118914196D01*
X148293245Y-118988376D01*
X148346605Y-119053395D01*
X148411624Y-119106755D01*
X148485804Y-119146405D01*
X148566293Y-119170822D01*
X148650000Y-119179066D01*
X149323000Y-119179066D01*
X149323000Y-120216755D01*
X149319726Y-120250000D01*
X149323000Y-120283245D01*
X149323000Y-120283251D01*
X149332796Y-120382714D01*
X149371508Y-120510329D01*
X149434372Y-120627940D01*
X149518973Y-120731026D01*
X149544800Y-120752222D01*
X149582891Y-120790313D01*
X149514196Y-120753595D01*
X149433707Y-120729178D01*
X149350000Y-120720934D01*
X147650000Y-120720934D01*
X147566293Y-120729178D01*
X147485804Y-120753595D01*
X147452000Y-120771664D01*
X147452000Y-113228336D01*
X147485804Y-113246405D01*
X147566293Y-113270822D01*
X147650000Y-113279066D01*
X149350000Y-113279066D01*
X149433707Y-113270822D01*
X149514196Y-113246405D01*
X149588376Y-113206755D01*
X149653395Y-113153395D01*
X149706755Y-113088376D01*
X149746405Y-113014196D01*
X149770822Y-112933707D01*
X149779066Y-112850000D01*
X149779066Y-112845292D01*
X151084313Y-112845292D01*
X151161595Y-113025936D01*
X151373051Y-113121015D01*
X151598992Y-113173014D01*
X151830738Y-113179936D01*
X152059380Y-113141512D01*
X152276133Y-113059221D01*
X152338405Y-113025936D01*
X152415687Y-112845292D01*
X151750000Y-112179605D01*
X151084313Y-112845292D01*
X149779066Y-112845292D01*
X149779066Y-112080738D01*
X150570064Y-112080738D01*
X150608488Y-112309380D01*
X150690779Y-112526133D01*
X150724064Y-112588405D01*
X150904708Y-112665687D01*
X151570395Y-112000000D01*
X151929605Y-112000000D01*
X152595292Y-112665687D01*
X152775936Y-112588405D01*
X152871015Y-112376949D01*
X152923014Y-112151008D01*
X152929936Y-111919262D01*
X152891512Y-111690620D01*
X152809221Y-111473867D01*
X152775936Y-111411595D01*
X152595292Y-111334313D01*
X151929605Y-112000000D01*
X151570395Y-112000000D01*
X150904708Y-111334313D01*
X150724064Y-111411595D01*
X150628985Y-111623051D01*
X150576986Y-111848992D01*
X150570064Y-112080738D01*
X149779066Y-112080738D01*
X149779066Y-111150000D01*
X149770822Y-111066293D01*
X149746405Y-110985804D01*
X149728336Y-110952000D01*
X151202874Y-110952000D01*
X151161595Y-110974064D01*
%TD*%
M02*
