%TF.GenerationSoftware,KiCad,Pcbnew,(5.1.6)-1*%
%TF.CreationDate,2022-09-21T11:03:18-04:00*%
%TF.ProjectId,Amiga-CR1220,416d6967-612d-4435-9231-3232302e6b69,rev?*%
%TF.SameCoordinates,Original*%
%TF.FileFunction,Copper,L2,Bot*%
%TF.FilePolarity,Positive*%
%FSLAX46Y46*%
G04 Gerber Fmt 4.6, Leading zero omitted, Abs format (unit mm)*
G04 Created by KiCad (PCBNEW (5.1.6)-1) date 2022-09-21 11:03:18*
%MOMM*%
%LPD*%
G01*
G04 APERTURE LIST*
%TA.AperFunction,ComponentPad*%
%ADD10R,1.700000X1.700000*%
%TD*%
%TA.AperFunction,SMDPad,CuDef*%
%ADD11R,0.900000X0.800000*%
%TD*%
%TA.AperFunction,ViaPad*%
%ADD12C,0.800000*%
%TD*%
%TA.AperFunction,Conductor*%
%ADD13C,0.500000*%
%TD*%
%TA.AperFunction,Conductor*%
%ADD14C,0.254000*%
%TD*%
G04 APERTURE END LIST*
D10*
%TO.P,J1,1*%
%TO.N,Net-(J1-Pad1)*%
X148500000Y-112000000D03*
%TD*%
%TO.P,J3,1*%
%TO.N,GND*%
X168500000Y-117000000D03*
%TD*%
D11*
%TO.P,Q1,1*%
%TO.N,GND*%
X155500000Y-116000000D03*
%TO.P,Q1,2*%
%TO.N,Net-(J1-Pad1)*%
X155500000Y-117900000D03*
%TO.P,Q1,3*%
%TO.N,+3V0*%
X153500000Y-116950000D03*
%TD*%
D10*
%TO.P,J2,1*%
%TO.N,Net-(J1-Pad1)*%
X148500000Y-122000000D03*
%TD*%
D12*
%TO.N,+3V0*%
X152000000Y-117000000D03*
%TD*%
D13*
%TO.N,Net-(J1-Pad1)*%
X148500000Y-122000000D02*
X148500000Y-112000000D01*
X152600000Y-117900000D02*
X148500000Y-122000000D01*
X155500000Y-117900000D02*
X152600000Y-117900000D01*
%TO.N,+3V0*%
X153450000Y-117000000D02*
X153500000Y-116950000D01*
X152000000Y-117000000D02*
X153450000Y-117000000D01*
%TD*%
D14*
%TO.N,GND*%
G36*
X157548001Y-111977785D02*
G01*
X157545813Y-112000000D01*
X157554540Y-112088607D01*
X157580386Y-112173810D01*
X157622357Y-112252333D01*
X157678841Y-112321159D01*
X157747667Y-112377643D01*
X157826190Y-112419614D01*
X157911393Y-112445460D01*
X157977795Y-112452000D01*
X158000000Y-112454187D01*
X158022205Y-112452000D01*
X162977795Y-112452000D01*
X163000000Y-112454187D01*
X163022205Y-112452000D01*
X163088607Y-112445460D01*
X163173810Y-112419614D01*
X163252333Y-112377643D01*
X163321159Y-112321159D01*
X163377643Y-112252333D01*
X163419614Y-112173810D01*
X163445460Y-112088607D01*
X163454187Y-112000000D01*
X163452000Y-111977795D01*
X163452000Y-111231351D01*
X168792341Y-113901521D01*
X168826190Y-113919614D01*
X168853446Y-113927882D01*
X168880036Y-113938057D01*
X168895943Y-113940773D01*
X168911393Y-113945460D01*
X168939739Y-113948252D01*
X168967803Y-113953044D01*
X169006136Y-113952000D01*
X170548001Y-113952000D01*
X170548000Y-114977795D01*
X170545813Y-115000000D01*
X170554540Y-115088607D01*
X170580386Y-115173810D01*
X170622357Y-115252333D01*
X170644858Y-115279750D01*
X170678841Y-115321159D01*
X170747667Y-115377643D01*
X170826190Y-115419614D01*
X170911393Y-115445460D01*
X171000000Y-115454187D01*
X171022205Y-115452000D01*
X172298000Y-115452000D01*
X172298001Y-118548000D01*
X171022205Y-118548000D01*
X171000000Y-118545813D01*
X170977795Y-118548000D01*
X170911393Y-118554540D01*
X170826190Y-118580386D01*
X170747667Y-118622357D01*
X170678841Y-118678841D01*
X170622357Y-118747667D01*
X170580386Y-118826190D01*
X170554540Y-118911393D01*
X170545813Y-119000000D01*
X170548000Y-119022205D01*
X170548001Y-120048000D01*
X169006136Y-120048000D01*
X168967803Y-120046956D01*
X168939739Y-120051748D01*
X168911393Y-120054540D01*
X168895943Y-120059227D01*
X168880036Y-120061943D01*
X168853446Y-120072118D01*
X168826190Y-120080386D01*
X168792341Y-120098479D01*
X163452000Y-122768649D01*
X163452000Y-122022205D01*
X163454187Y-122000000D01*
X163445460Y-121911393D01*
X163419614Y-121826190D01*
X163377643Y-121747667D01*
X163321159Y-121678841D01*
X163252333Y-121622357D01*
X163173810Y-121580386D01*
X163088607Y-121554540D01*
X163022205Y-121548000D01*
X163000000Y-121545813D01*
X162977795Y-121548000D01*
X158022205Y-121548000D01*
X158000000Y-121545813D01*
X157977795Y-121548000D01*
X157911393Y-121554540D01*
X157826190Y-121580386D01*
X157747667Y-121622357D01*
X157678841Y-121678841D01*
X157622357Y-121747667D01*
X157580386Y-121826190D01*
X157554540Y-121911393D01*
X157545813Y-122000000D01*
X157548001Y-122022215D01*
X157548000Y-123048000D01*
X149728336Y-123048000D01*
X149746405Y-123014196D01*
X149770822Y-122933707D01*
X149779066Y-122850000D01*
X149779066Y-121678356D01*
X152880423Y-118577000D01*
X154724943Y-118577000D01*
X154746605Y-118603395D01*
X154811624Y-118656755D01*
X154885804Y-118696405D01*
X154966293Y-118720822D01*
X155050000Y-118729066D01*
X155950000Y-118729066D01*
X156033707Y-118720822D01*
X156114196Y-118696405D01*
X156188376Y-118656755D01*
X156253395Y-118603395D01*
X156306755Y-118538376D01*
X156346405Y-118464196D01*
X156370822Y-118383707D01*
X156379066Y-118300000D01*
X156379066Y-117850000D01*
X167220934Y-117850000D01*
X167229178Y-117933707D01*
X167253595Y-118014196D01*
X167293245Y-118088376D01*
X167346605Y-118153395D01*
X167411624Y-118206755D01*
X167485804Y-118246405D01*
X167566293Y-118270822D01*
X167650000Y-118279066D01*
X168266250Y-118277000D01*
X168373000Y-118170250D01*
X168373000Y-117127000D01*
X168627000Y-117127000D01*
X168627000Y-118170250D01*
X168733750Y-118277000D01*
X169350000Y-118279066D01*
X169433707Y-118270822D01*
X169514196Y-118246405D01*
X169588376Y-118206755D01*
X169653395Y-118153395D01*
X169706755Y-118088376D01*
X169746405Y-118014196D01*
X169770822Y-117933707D01*
X169779066Y-117850000D01*
X169777000Y-117233750D01*
X169670250Y-117127000D01*
X168627000Y-117127000D01*
X168373000Y-117127000D01*
X167329750Y-117127000D01*
X167223000Y-117233750D01*
X167220934Y-117850000D01*
X156379066Y-117850000D01*
X156379066Y-117500000D01*
X156370822Y-117416293D01*
X156346405Y-117335804D01*
X156306755Y-117261624D01*
X156253395Y-117196605D01*
X156188376Y-117143245D01*
X156114196Y-117103595D01*
X156033707Y-117079178D01*
X155950000Y-117070934D01*
X155050000Y-117070934D01*
X154966293Y-117079178D01*
X154885804Y-117103595D01*
X154811624Y-117143245D01*
X154746605Y-117196605D01*
X154724943Y-117223000D01*
X154379066Y-117223000D01*
X154379066Y-116550000D01*
X154370822Y-116466293D01*
X154350712Y-116400000D01*
X154620934Y-116400000D01*
X154629178Y-116483707D01*
X154653595Y-116564196D01*
X154693245Y-116638376D01*
X154746605Y-116703395D01*
X154811624Y-116756755D01*
X154885804Y-116796405D01*
X154966293Y-116820822D01*
X155050000Y-116829066D01*
X155266250Y-116827000D01*
X155373000Y-116720250D01*
X155373000Y-116127000D01*
X155627000Y-116127000D01*
X155627000Y-116720250D01*
X155733750Y-116827000D01*
X155950000Y-116829066D01*
X156033707Y-116820822D01*
X156114196Y-116796405D01*
X156188376Y-116756755D01*
X156253395Y-116703395D01*
X156306755Y-116638376D01*
X156346405Y-116564196D01*
X156370822Y-116483707D01*
X156379066Y-116400000D01*
X156377000Y-116233750D01*
X156293250Y-116150000D01*
X167220934Y-116150000D01*
X167223000Y-116766250D01*
X167329750Y-116873000D01*
X168373000Y-116873000D01*
X168373000Y-115829750D01*
X168627000Y-115829750D01*
X168627000Y-116873000D01*
X169670250Y-116873000D01*
X169777000Y-116766250D01*
X169779066Y-116150000D01*
X169770822Y-116066293D01*
X169746405Y-115985804D01*
X169706755Y-115911624D01*
X169653395Y-115846605D01*
X169588376Y-115793245D01*
X169514196Y-115753595D01*
X169433707Y-115729178D01*
X169350000Y-115720934D01*
X168733750Y-115723000D01*
X168627000Y-115829750D01*
X168373000Y-115829750D01*
X168266250Y-115723000D01*
X167650000Y-115720934D01*
X167566293Y-115729178D01*
X167485804Y-115753595D01*
X167411624Y-115793245D01*
X167346605Y-115846605D01*
X167293245Y-115911624D01*
X167253595Y-115985804D01*
X167229178Y-116066293D01*
X167220934Y-116150000D01*
X156293250Y-116150000D01*
X156270250Y-116127000D01*
X155627000Y-116127000D01*
X155373000Y-116127000D01*
X154729750Y-116127000D01*
X154623000Y-116233750D01*
X154620934Y-116400000D01*
X154350712Y-116400000D01*
X154346405Y-116385804D01*
X154306755Y-116311624D01*
X154253395Y-116246605D01*
X154188376Y-116193245D01*
X154114196Y-116153595D01*
X154033707Y-116129178D01*
X153950000Y-116120934D01*
X153050000Y-116120934D01*
X152966293Y-116129178D01*
X152885804Y-116153595D01*
X152811624Y-116193245D01*
X152746605Y-116246605D01*
X152693245Y-116311624D01*
X152687164Y-116323000D01*
X152475357Y-116323000D01*
X152391731Y-116267123D01*
X152241227Y-116204782D01*
X152081452Y-116173000D01*
X151918548Y-116173000D01*
X151758773Y-116204782D01*
X151608269Y-116267123D01*
X151472819Y-116357628D01*
X151357628Y-116472819D01*
X151267123Y-116608269D01*
X151204782Y-116758773D01*
X151173000Y-116918548D01*
X151173000Y-117081452D01*
X151204782Y-117241227D01*
X151267123Y-117391731D01*
X151357628Y-117527181D01*
X151472819Y-117642372D01*
X151608269Y-117732877D01*
X151750702Y-117791875D01*
X149177000Y-120365578D01*
X149177000Y-115600000D01*
X154620934Y-115600000D01*
X154623000Y-115766250D01*
X154729750Y-115873000D01*
X155373000Y-115873000D01*
X155373000Y-115279750D01*
X155627000Y-115279750D01*
X155627000Y-115873000D01*
X156270250Y-115873000D01*
X156377000Y-115766250D01*
X156379066Y-115600000D01*
X156370822Y-115516293D01*
X156346405Y-115435804D01*
X156306755Y-115361624D01*
X156253395Y-115296605D01*
X156188376Y-115243245D01*
X156114196Y-115203595D01*
X156033707Y-115179178D01*
X155950000Y-115170934D01*
X155733750Y-115173000D01*
X155627000Y-115279750D01*
X155373000Y-115279750D01*
X155266250Y-115173000D01*
X155050000Y-115170934D01*
X154966293Y-115179178D01*
X154885804Y-115203595D01*
X154811624Y-115243245D01*
X154746605Y-115296605D01*
X154693245Y-115361624D01*
X154653595Y-115435804D01*
X154629178Y-115516293D01*
X154620934Y-115600000D01*
X149177000Y-115600000D01*
X149177000Y-113279066D01*
X149350000Y-113279066D01*
X149433707Y-113270822D01*
X149514196Y-113246405D01*
X149588376Y-113206755D01*
X149653395Y-113153395D01*
X149706755Y-113088376D01*
X149746405Y-113014196D01*
X149770822Y-112933707D01*
X149779066Y-112850000D01*
X149779066Y-111150000D01*
X149770822Y-111066293D01*
X149746405Y-110985804D01*
X149728336Y-110952000D01*
X157548000Y-110952000D01*
X157548001Y-111977785D01*
G37*
X157548001Y-111977785D02*
X157545813Y-112000000D01*
X157554540Y-112088607D01*
X157580386Y-112173810D01*
X157622357Y-112252333D01*
X157678841Y-112321159D01*
X157747667Y-112377643D01*
X157826190Y-112419614D01*
X157911393Y-112445460D01*
X157977795Y-112452000D01*
X158000000Y-112454187D01*
X158022205Y-112452000D01*
X162977795Y-112452000D01*
X163000000Y-112454187D01*
X163022205Y-112452000D01*
X163088607Y-112445460D01*
X163173810Y-112419614D01*
X163252333Y-112377643D01*
X163321159Y-112321159D01*
X163377643Y-112252333D01*
X163419614Y-112173810D01*
X163445460Y-112088607D01*
X163454187Y-112000000D01*
X163452000Y-111977795D01*
X163452000Y-111231351D01*
X168792341Y-113901521D01*
X168826190Y-113919614D01*
X168853446Y-113927882D01*
X168880036Y-113938057D01*
X168895943Y-113940773D01*
X168911393Y-113945460D01*
X168939739Y-113948252D01*
X168967803Y-113953044D01*
X169006136Y-113952000D01*
X170548001Y-113952000D01*
X170548000Y-114977795D01*
X170545813Y-115000000D01*
X170554540Y-115088607D01*
X170580386Y-115173810D01*
X170622357Y-115252333D01*
X170644858Y-115279750D01*
X170678841Y-115321159D01*
X170747667Y-115377643D01*
X170826190Y-115419614D01*
X170911393Y-115445460D01*
X171000000Y-115454187D01*
X171022205Y-115452000D01*
X172298000Y-115452000D01*
X172298001Y-118548000D01*
X171022205Y-118548000D01*
X171000000Y-118545813D01*
X170977795Y-118548000D01*
X170911393Y-118554540D01*
X170826190Y-118580386D01*
X170747667Y-118622357D01*
X170678841Y-118678841D01*
X170622357Y-118747667D01*
X170580386Y-118826190D01*
X170554540Y-118911393D01*
X170545813Y-119000000D01*
X170548000Y-119022205D01*
X170548001Y-120048000D01*
X169006136Y-120048000D01*
X168967803Y-120046956D01*
X168939739Y-120051748D01*
X168911393Y-120054540D01*
X168895943Y-120059227D01*
X168880036Y-120061943D01*
X168853446Y-120072118D01*
X168826190Y-120080386D01*
X168792341Y-120098479D01*
X163452000Y-122768649D01*
X163452000Y-122022205D01*
X163454187Y-122000000D01*
X163445460Y-121911393D01*
X163419614Y-121826190D01*
X163377643Y-121747667D01*
X163321159Y-121678841D01*
X163252333Y-121622357D01*
X163173810Y-121580386D01*
X163088607Y-121554540D01*
X163022205Y-121548000D01*
X163000000Y-121545813D01*
X162977795Y-121548000D01*
X158022205Y-121548000D01*
X158000000Y-121545813D01*
X157977795Y-121548000D01*
X157911393Y-121554540D01*
X157826190Y-121580386D01*
X157747667Y-121622357D01*
X157678841Y-121678841D01*
X157622357Y-121747667D01*
X157580386Y-121826190D01*
X157554540Y-121911393D01*
X157545813Y-122000000D01*
X157548001Y-122022215D01*
X157548000Y-123048000D01*
X149728336Y-123048000D01*
X149746405Y-123014196D01*
X149770822Y-122933707D01*
X149779066Y-122850000D01*
X149779066Y-121678356D01*
X152880423Y-118577000D01*
X154724943Y-118577000D01*
X154746605Y-118603395D01*
X154811624Y-118656755D01*
X154885804Y-118696405D01*
X154966293Y-118720822D01*
X155050000Y-118729066D01*
X155950000Y-118729066D01*
X156033707Y-118720822D01*
X156114196Y-118696405D01*
X156188376Y-118656755D01*
X156253395Y-118603395D01*
X156306755Y-118538376D01*
X156346405Y-118464196D01*
X156370822Y-118383707D01*
X156379066Y-118300000D01*
X156379066Y-117850000D01*
X167220934Y-117850000D01*
X167229178Y-117933707D01*
X167253595Y-118014196D01*
X167293245Y-118088376D01*
X167346605Y-118153395D01*
X167411624Y-118206755D01*
X167485804Y-118246405D01*
X167566293Y-118270822D01*
X167650000Y-118279066D01*
X168266250Y-118277000D01*
X168373000Y-118170250D01*
X168373000Y-117127000D01*
X168627000Y-117127000D01*
X168627000Y-118170250D01*
X168733750Y-118277000D01*
X169350000Y-118279066D01*
X169433707Y-118270822D01*
X169514196Y-118246405D01*
X169588376Y-118206755D01*
X169653395Y-118153395D01*
X169706755Y-118088376D01*
X169746405Y-118014196D01*
X169770822Y-117933707D01*
X169779066Y-117850000D01*
X169777000Y-117233750D01*
X169670250Y-117127000D01*
X168627000Y-117127000D01*
X168373000Y-117127000D01*
X167329750Y-117127000D01*
X167223000Y-117233750D01*
X167220934Y-117850000D01*
X156379066Y-117850000D01*
X156379066Y-117500000D01*
X156370822Y-117416293D01*
X156346405Y-117335804D01*
X156306755Y-117261624D01*
X156253395Y-117196605D01*
X156188376Y-117143245D01*
X156114196Y-117103595D01*
X156033707Y-117079178D01*
X155950000Y-117070934D01*
X155050000Y-117070934D01*
X154966293Y-117079178D01*
X154885804Y-117103595D01*
X154811624Y-117143245D01*
X154746605Y-117196605D01*
X154724943Y-117223000D01*
X154379066Y-117223000D01*
X154379066Y-116550000D01*
X154370822Y-116466293D01*
X154350712Y-116400000D01*
X154620934Y-116400000D01*
X154629178Y-116483707D01*
X154653595Y-116564196D01*
X154693245Y-116638376D01*
X154746605Y-116703395D01*
X154811624Y-116756755D01*
X154885804Y-116796405D01*
X154966293Y-116820822D01*
X155050000Y-116829066D01*
X155266250Y-116827000D01*
X155373000Y-116720250D01*
X155373000Y-116127000D01*
X155627000Y-116127000D01*
X155627000Y-116720250D01*
X155733750Y-116827000D01*
X155950000Y-116829066D01*
X156033707Y-116820822D01*
X156114196Y-116796405D01*
X156188376Y-116756755D01*
X156253395Y-116703395D01*
X156306755Y-116638376D01*
X156346405Y-116564196D01*
X156370822Y-116483707D01*
X156379066Y-116400000D01*
X156377000Y-116233750D01*
X156293250Y-116150000D01*
X167220934Y-116150000D01*
X167223000Y-116766250D01*
X167329750Y-116873000D01*
X168373000Y-116873000D01*
X168373000Y-115829750D01*
X168627000Y-115829750D01*
X168627000Y-116873000D01*
X169670250Y-116873000D01*
X169777000Y-116766250D01*
X169779066Y-116150000D01*
X169770822Y-116066293D01*
X169746405Y-115985804D01*
X169706755Y-115911624D01*
X169653395Y-115846605D01*
X169588376Y-115793245D01*
X169514196Y-115753595D01*
X169433707Y-115729178D01*
X169350000Y-115720934D01*
X168733750Y-115723000D01*
X168627000Y-115829750D01*
X168373000Y-115829750D01*
X168266250Y-115723000D01*
X167650000Y-115720934D01*
X167566293Y-115729178D01*
X167485804Y-115753595D01*
X167411624Y-115793245D01*
X167346605Y-115846605D01*
X167293245Y-115911624D01*
X167253595Y-115985804D01*
X167229178Y-116066293D01*
X167220934Y-116150000D01*
X156293250Y-116150000D01*
X156270250Y-116127000D01*
X155627000Y-116127000D01*
X155373000Y-116127000D01*
X154729750Y-116127000D01*
X154623000Y-116233750D01*
X154620934Y-116400000D01*
X154350712Y-116400000D01*
X154346405Y-116385804D01*
X154306755Y-116311624D01*
X154253395Y-116246605D01*
X154188376Y-116193245D01*
X154114196Y-116153595D01*
X154033707Y-116129178D01*
X153950000Y-116120934D01*
X153050000Y-116120934D01*
X152966293Y-116129178D01*
X152885804Y-116153595D01*
X152811624Y-116193245D01*
X152746605Y-116246605D01*
X152693245Y-116311624D01*
X152687164Y-116323000D01*
X152475357Y-116323000D01*
X152391731Y-116267123D01*
X152241227Y-116204782D01*
X152081452Y-116173000D01*
X151918548Y-116173000D01*
X151758773Y-116204782D01*
X151608269Y-116267123D01*
X151472819Y-116357628D01*
X151357628Y-116472819D01*
X151267123Y-116608269D01*
X151204782Y-116758773D01*
X151173000Y-116918548D01*
X151173000Y-117081452D01*
X151204782Y-117241227D01*
X151267123Y-117391731D01*
X151357628Y-117527181D01*
X151472819Y-117642372D01*
X151608269Y-117732877D01*
X151750702Y-117791875D01*
X149177000Y-120365578D01*
X149177000Y-115600000D01*
X154620934Y-115600000D01*
X154623000Y-115766250D01*
X154729750Y-115873000D01*
X155373000Y-115873000D01*
X155373000Y-115279750D01*
X155627000Y-115279750D01*
X155627000Y-115873000D01*
X156270250Y-115873000D01*
X156377000Y-115766250D01*
X156379066Y-115600000D01*
X156370822Y-115516293D01*
X156346405Y-115435804D01*
X156306755Y-115361624D01*
X156253395Y-115296605D01*
X156188376Y-115243245D01*
X156114196Y-115203595D01*
X156033707Y-115179178D01*
X155950000Y-115170934D01*
X155733750Y-115173000D01*
X155627000Y-115279750D01*
X155373000Y-115279750D01*
X155266250Y-115173000D01*
X155050000Y-115170934D01*
X154966293Y-115179178D01*
X154885804Y-115203595D01*
X154811624Y-115243245D01*
X154746605Y-115296605D01*
X154693245Y-115361624D01*
X154653595Y-115435804D01*
X154629178Y-115516293D01*
X154620934Y-115600000D01*
X149177000Y-115600000D01*
X149177000Y-113279066D01*
X149350000Y-113279066D01*
X149433707Y-113270822D01*
X149514196Y-113246405D01*
X149588376Y-113206755D01*
X149653395Y-113153395D01*
X149706755Y-113088376D01*
X149746405Y-113014196D01*
X149770822Y-112933707D01*
X149779066Y-112850000D01*
X149779066Y-111150000D01*
X149770822Y-111066293D01*
X149746405Y-110985804D01*
X149728336Y-110952000D01*
X157548000Y-110952000D01*
X157548001Y-111977785D01*
%TD*%
M02*
