%TF.GenerationSoftware,KiCad,Pcbnew,(5.1.6)-1*%
%TF.CreationDate,2022-09-21T11:03:18-04:00*%
%TF.ProjectId,Amiga-CR1220,416d6967-612d-4435-9231-3232302e6b69,rev?*%
%TF.SameCoordinates,Original*%
%TF.FileFunction,Legend,Bot*%
%TF.FilePolarity,Positive*%
%FSLAX46Y46*%
G04 Gerber Fmt 4.6, Leading zero omitted, Abs format (unit mm)*
G04 Created by KiCad (PCBNEW (5.1.6)-1) date 2022-09-21 11:03:18*
%MOMM*%
%LPD*%
G01*
G04 APERTURE LIST*
%ADD10C,0.150000*%
%ADD11C,0.010000*%
%ADD12C,0.120000*%
G04 APERTURE END LIST*
D10*
X170595238Y-114702380D02*
X170595238Y-114035714D01*
X170595238Y-114226190D02*
X170547619Y-114130952D01*
X170500000Y-114083333D01*
X170404761Y-114035714D01*
X170309523Y-114035714D01*
X169595238Y-114654761D02*
X169690476Y-114702380D01*
X169880952Y-114702380D01*
X169976190Y-114654761D01*
X170023809Y-114559523D01*
X170023809Y-114178571D01*
X169976190Y-114083333D01*
X169880952Y-114035714D01*
X169690476Y-114035714D01*
X169595238Y-114083333D01*
X169547619Y-114178571D01*
X169547619Y-114273809D01*
X170023809Y-114369047D01*
X169214285Y-114035714D02*
X168976190Y-114702380D01*
X168738095Y-114035714D01*
X168357142Y-114607142D02*
X168309523Y-114654761D01*
X168357142Y-114702380D01*
X168404761Y-114654761D01*
X168357142Y-114607142D01*
X168357142Y-114702380D01*
X167690476Y-113702380D02*
X167595238Y-113702380D01*
X167500000Y-113750000D01*
X167452380Y-113797619D01*
X167404761Y-113892857D01*
X167357142Y-114083333D01*
X167357142Y-114321428D01*
X167404761Y-114511904D01*
X167452380Y-114607142D01*
X167500000Y-114654761D01*
X167595238Y-114702380D01*
X167690476Y-114702380D01*
X167785714Y-114654761D01*
X167833333Y-114607142D01*
X167880952Y-114511904D01*
X167928571Y-114321428D01*
X167928571Y-114083333D01*
X167880952Y-113892857D01*
X167833333Y-113797619D01*
X167785714Y-113750000D01*
X167690476Y-113702380D01*
X170583333Y-119285714D02*
X170392857Y-119952380D01*
X170202380Y-119476190D01*
X170011904Y-119952380D01*
X169821428Y-119285714D01*
X169440476Y-119952380D02*
X169440476Y-119285714D01*
X169440476Y-118952380D02*
X169488095Y-119000000D01*
X169440476Y-119047619D01*
X169392857Y-119000000D01*
X169440476Y-118952380D01*
X169440476Y-119047619D01*
X168964285Y-119952380D02*
X168964285Y-119285714D01*
X168964285Y-119476190D02*
X168916666Y-119380952D01*
X168869047Y-119333333D01*
X168773809Y-119285714D01*
X168678571Y-119285714D01*
X167964285Y-119904761D02*
X168059523Y-119952380D01*
X168250000Y-119952380D01*
X168345238Y-119904761D01*
X168392857Y-119809523D01*
X168392857Y-119428571D01*
X168345238Y-119333333D01*
X168250000Y-119285714D01*
X168059523Y-119285714D01*
X167964285Y-119333333D01*
X167916666Y-119428571D01*
X167916666Y-119523809D01*
X168392857Y-119619047D01*
X167630952Y-119285714D02*
X167250000Y-119285714D01*
X167488095Y-118952380D02*
X167488095Y-119809523D01*
X167440476Y-119904761D01*
X167345238Y-119952380D01*
X167250000Y-119952380D01*
X166488095Y-119952380D02*
X166488095Y-119428571D01*
X166535714Y-119333333D01*
X166630952Y-119285714D01*
X166821428Y-119285714D01*
X166916666Y-119333333D01*
X166488095Y-119904761D02*
X166583333Y-119952380D01*
X166821428Y-119952380D01*
X166916666Y-119904761D01*
X166964285Y-119809523D01*
X166964285Y-119714285D01*
X166916666Y-119619047D01*
X166821428Y-119571428D01*
X166583333Y-119571428D01*
X166488095Y-119523809D01*
X166011904Y-119285714D02*
X166011904Y-120285714D01*
X166011904Y-119333333D02*
X165916666Y-119285714D01*
X165726190Y-119285714D01*
X165630952Y-119333333D01*
X165583333Y-119380952D01*
X165535714Y-119476190D01*
X165535714Y-119761904D01*
X165583333Y-119857142D01*
X165630952Y-119904761D01*
X165726190Y-119952380D01*
X165916666Y-119952380D01*
X166011904Y-119904761D01*
X164392857Y-119047619D02*
X164345238Y-119000000D01*
X164250000Y-118952380D01*
X164011904Y-118952380D01*
X163916666Y-119000000D01*
X163869047Y-119047619D01*
X163821428Y-119142857D01*
X163821428Y-119238095D01*
X163869047Y-119380952D01*
X164440476Y-119952380D01*
X163821428Y-119952380D01*
X163202380Y-118952380D02*
X163107142Y-118952380D01*
X163011904Y-119000000D01*
X162964285Y-119047619D01*
X162916666Y-119142857D01*
X162869047Y-119333333D01*
X162869047Y-119571428D01*
X162916666Y-119761904D01*
X162964285Y-119857142D01*
X163011904Y-119904761D01*
X163107142Y-119952380D01*
X163202380Y-119952380D01*
X163297619Y-119904761D01*
X163345238Y-119857142D01*
X163392857Y-119761904D01*
X163440476Y-119571428D01*
X163440476Y-119333333D01*
X163392857Y-119142857D01*
X163345238Y-119047619D01*
X163297619Y-119000000D01*
X163202380Y-118952380D01*
X162488095Y-119047619D02*
X162440476Y-119000000D01*
X162345238Y-118952380D01*
X162107142Y-118952380D01*
X162011904Y-119000000D01*
X161964285Y-119047619D01*
X161916666Y-119142857D01*
X161916666Y-119238095D01*
X161964285Y-119380952D01*
X162535714Y-119952380D01*
X161916666Y-119952380D01*
X161535714Y-119047619D02*
X161488095Y-119000000D01*
X161392857Y-118952380D01*
X161154761Y-118952380D01*
X161059523Y-119000000D01*
X161011904Y-119047619D01*
X160964285Y-119142857D01*
X160964285Y-119238095D01*
X161011904Y-119380952D01*
X161583333Y-119952380D01*
X160964285Y-119952380D01*
X166130952Y-112916666D02*
X165654761Y-112916666D01*
X166226190Y-113202380D02*
X165892857Y-112202380D01*
X165559523Y-113202380D01*
X165226190Y-113202380D02*
X165226190Y-112535714D01*
X165226190Y-112630952D02*
X165178571Y-112583333D01*
X165083333Y-112535714D01*
X164940476Y-112535714D01*
X164845238Y-112583333D01*
X164797619Y-112678571D01*
X164797619Y-113202380D01*
X164797619Y-112678571D02*
X164750000Y-112583333D01*
X164654761Y-112535714D01*
X164511904Y-112535714D01*
X164416666Y-112583333D01*
X164369047Y-112678571D01*
X164369047Y-113202380D01*
X163892857Y-113202380D02*
X163892857Y-112535714D01*
X163892857Y-112202380D02*
X163940476Y-112250000D01*
X163892857Y-112297619D01*
X163845238Y-112250000D01*
X163892857Y-112202380D01*
X163892857Y-112297619D01*
X162988095Y-112535714D02*
X162988095Y-113345238D01*
X163035714Y-113440476D01*
X163083333Y-113488095D01*
X163178571Y-113535714D01*
X163321428Y-113535714D01*
X163416666Y-113488095D01*
X162988095Y-113154761D02*
X163083333Y-113202380D01*
X163273809Y-113202380D01*
X163369047Y-113154761D01*
X163416666Y-113107142D01*
X163464285Y-113011904D01*
X163464285Y-112726190D01*
X163416666Y-112630952D01*
X163369047Y-112583333D01*
X163273809Y-112535714D01*
X163083333Y-112535714D01*
X162988095Y-112583333D01*
X162083333Y-113202380D02*
X162083333Y-112678571D01*
X162130952Y-112583333D01*
X162226190Y-112535714D01*
X162416666Y-112535714D01*
X162511904Y-112583333D01*
X162083333Y-113154761D02*
X162178571Y-113202380D01*
X162416666Y-113202380D01*
X162511904Y-113154761D01*
X162559523Y-113059523D01*
X162559523Y-112964285D01*
X162511904Y-112869047D01*
X162416666Y-112821428D01*
X162178571Y-112821428D01*
X162083333Y-112773809D01*
X160511904Y-112678571D02*
X160369047Y-112726190D01*
X160321428Y-112773809D01*
X160273809Y-112869047D01*
X160273809Y-113011904D01*
X160321428Y-113107142D01*
X160369047Y-113154761D01*
X160464285Y-113202380D01*
X160845238Y-113202380D01*
X160845238Y-112202380D01*
X160511904Y-112202380D01*
X160416666Y-112250000D01*
X160369047Y-112297619D01*
X160321428Y-112392857D01*
X160321428Y-112488095D01*
X160369047Y-112583333D01*
X160416666Y-112630952D01*
X160511904Y-112678571D01*
X160845238Y-112678571D01*
X159416666Y-113202380D02*
X159416666Y-112678571D01*
X159464285Y-112583333D01*
X159559523Y-112535714D01*
X159750000Y-112535714D01*
X159845238Y-112583333D01*
X159416666Y-113154761D02*
X159511904Y-113202380D01*
X159750000Y-113202380D01*
X159845238Y-113154761D01*
X159892857Y-113059523D01*
X159892857Y-112964285D01*
X159845238Y-112869047D01*
X159750000Y-112821428D01*
X159511904Y-112821428D01*
X159416666Y-112773809D01*
X159083333Y-112535714D02*
X158702380Y-112535714D01*
X158940476Y-112202380D02*
X158940476Y-113059523D01*
X158892857Y-113154761D01*
X158797619Y-113202380D01*
X158702380Y-113202380D01*
X158511904Y-112535714D02*
X158130952Y-112535714D01*
X158369047Y-112202380D02*
X158369047Y-113059523D01*
X158321428Y-113154761D01*
X158226190Y-113202380D01*
X158130952Y-113202380D01*
X157416666Y-113154761D02*
X157511904Y-113202380D01*
X157702380Y-113202380D01*
X157797619Y-113154761D01*
X157845238Y-113059523D01*
X157845238Y-112678571D01*
X157797619Y-112583333D01*
X157702380Y-112535714D01*
X157511904Y-112535714D01*
X157416666Y-112583333D01*
X157369047Y-112678571D01*
X157369047Y-112773809D01*
X157845238Y-112869047D01*
X156940476Y-113202380D02*
X156940476Y-112535714D01*
X156940476Y-112726190D02*
X156892857Y-112630952D01*
X156845238Y-112583333D01*
X156750000Y-112535714D01*
X156654761Y-112535714D01*
X156416666Y-112535714D02*
X156178571Y-113202380D01*
X155940476Y-112535714D02*
X156178571Y-113202380D01*
X156273809Y-113440476D01*
X156321428Y-113488095D01*
X156416666Y-113535714D01*
X154797619Y-113202380D02*
X154797619Y-112202380D01*
X154797619Y-112678571D02*
X154226190Y-112678571D01*
X154226190Y-113202380D02*
X154226190Y-112202380D01*
X153607142Y-113202380D02*
X153702380Y-113154761D01*
X153750000Y-113107142D01*
X153797619Y-113011904D01*
X153797619Y-112726190D01*
X153750000Y-112630952D01*
X153702380Y-112583333D01*
X153607142Y-112535714D01*
X153464285Y-112535714D01*
X153369047Y-112583333D01*
X153321428Y-112630952D01*
X153273809Y-112726190D01*
X153273809Y-113011904D01*
X153321428Y-113107142D01*
X153369047Y-113154761D01*
X153464285Y-113202380D01*
X153607142Y-113202380D01*
X152702380Y-113202380D02*
X152797619Y-113154761D01*
X152845238Y-113059523D01*
X152845238Y-112202380D01*
X151892857Y-113202380D02*
X151892857Y-112202380D01*
X151892857Y-113154761D02*
X151988095Y-113202380D01*
X152178571Y-113202380D01*
X152273809Y-113154761D01*
X152321428Y-113107142D01*
X152369047Y-113011904D01*
X152369047Y-112726190D01*
X152321428Y-112630952D01*
X152273809Y-112583333D01*
X152178571Y-112535714D01*
X151988095Y-112535714D01*
X151892857Y-112583333D01*
X151035714Y-113154761D02*
X151130952Y-113202380D01*
X151321428Y-113202380D01*
X151416666Y-113154761D01*
X151464285Y-113059523D01*
X151464285Y-112678571D01*
X151416666Y-112583333D01*
X151321428Y-112535714D01*
X151130952Y-112535714D01*
X151035714Y-112583333D01*
X150988095Y-112678571D01*
X150988095Y-112773809D01*
X151464285Y-112869047D01*
X150559523Y-113202380D02*
X150559523Y-112535714D01*
X150559523Y-112726190D02*
X150511904Y-112630952D01*
X150464285Y-112583333D01*
X150369047Y-112535714D01*
X150273809Y-112535714D01*
X156983333Y-122116666D02*
X156983333Y-122616666D01*
X157016666Y-122716666D01*
X157083333Y-122783333D01*
X157183333Y-122816666D01*
X157250000Y-122816666D01*
X156316666Y-122816666D02*
X156650000Y-122816666D01*
X156650000Y-122116666D01*
X155683333Y-122750000D02*
X155716666Y-122783333D01*
X155816666Y-122816666D01*
X155883333Y-122816666D01*
X155983333Y-122783333D01*
X156050000Y-122716666D01*
X156083333Y-122650000D01*
X156116666Y-122516666D01*
X156116666Y-122416666D01*
X156083333Y-122283333D01*
X156050000Y-122216666D01*
X155983333Y-122150000D01*
X155883333Y-122116666D01*
X155816666Y-122116666D01*
X155716666Y-122150000D01*
X155683333Y-122183333D01*
X155183333Y-122116666D02*
X155183333Y-122616666D01*
X155216666Y-122716666D01*
X155283333Y-122783333D01*
X155383333Y-122816666D01*
X155450000Y-122816666D01*
X154516666Y-122816666D02*
X154850000Y-122816666D01*
X154850000Y-122116666D01*
X153883333Y-122750000D02*
X153916666Y-122783333D01*
X154016666Y-122816666D01*
X154083333Y-122816666D01*
X154183333Y-122783333D01*
X154250000Y-122716666D01*
X154283333Y-122650000D01*
X154316666Y-122516666D01*
X154316666Y-122416666D01*
X154283333Y-122283333D01*
X154250000Y-122216666D01*
X154183333Y-122150000D01*
X154083333Y-122116666D01*
X154016666Y-122116666D01*
X153916666Y-122150000D01*
X153883333Y-122183333D01*
X153383333Y-122116666D02*
X153383333Y-122616666D01*
X153416666Y-122716666D01*
X153483333Y-122783333D01*
X153583333Y-122816666D01*
X153650000Y-122816666D01*
X152716666Y-122816666D02*
X153050000Y-122816666D01*
X153050000Y-122116666D01*
X152083333Y-122750000D02*
X152116666Y-122783333D01*
X152216666Y-122816666D01*
X152283333Y-122816666D01*
X152383333Y-122783333D01*
X152450000Y-122716666D01*
X152483333Y-122650000D01*
X152516666Y-122516666D01*
X152516666Y-122416666D01*
X152483333Y-122283333D01*
X152450000Y-122216666D01*
X152383333Y-122150000D01*
X152283333Y-122116666D01*
X152216666Y-122116666D01*
X152116666Y-122150000D01*
X152083333Y-122183333D01*
X151583333Y-122116666D02*
X151583333Y-122616666D01*
X151616666Y-122716666D01*
X151683333Y-122783333D01*
X151783333Y-122816666D01*
X151850000Y-122816666D01*
X150916666Y-122816666D02*
X151250000Y-122816666D01*
X151250000Y-122116666D01*
X150283333Y-122750000D02*
X150316666Y-122783333D01*
X150416666Y-122816666D01*
X150483333Y-122816666D01*
X150583333Y-122783333D01*
X150650000Y-122716666D01*
X150683333Y-122650000D01*
X150716666Y-122516666D01*
X150716666Y-122416666D01*
X150683333Y-122283333D01*
X150650000Y-122216666D01*
X150583333Y-122150000D01*
X150483333Y-122116666D01*
X150416666Y-122116666D01*
X150316666Y-122150000D01*
X150283333Y-122183333D01*
D11*
%TO.C,REF\u002A\u002A*%
G36*
X152158759Y-118469184D02*
G01*
X152132247Y-118482282D01*
X152099553Y-118505106D01*
X152075725Y-118529996D01*
X152059406Y-118561249D01*
X152049240Y-118603166D01*
X152043872Y-118660044D01*
X152041944Y-118736184D01*
X152041831Y-118768917D01*
X152042161Y-118840656D01*
X152043527Y-118891927D01*
X152046500Y-118927404D01*
X152051649Y-118951763D01*
X152059543Y-118969680D01*
X152067757Y-118981902D01*
X152120187Y-119033905D01*
X152181930Y-119065184D01*
X152248536Y-119074592D01*
X152315558Y-119060980D01*
X152336792Y-119051354D01*
X152387624Y-119024859D01*
X152387624Y-119440052D01*
X152350525Y-119420868D01*
X152301643Y-119406025D01*
X152241561Y-119402222D01*
X152181564Y-119409243D01*
X152136256Y-119425013D01*
X152098675Y-119455047D01*
X152066564Y-119498024D01*
X152064150Y-119502436D01*
X152053967Y-119523221D01*
X152046530Y-119544170D01*
X152041411Y-119569548D01*
X152038181Y-119603618D01*
X152036413Y-119650641D01*
X152035677Y-119714882D01*
X152035544Y-119787176D01*
X152035544Y-120017822D01*
X152173861Y-120017822D01*
X152173861Y-119592533D01*
X152212549Y-119559979D01*
X152252738Y-119533940D01*
X152290797Y-119529205D01*
X152329066Y-119541389D01*
X152349462Y-119553320D01*
X152364642Y-119570313D01*
X152375438Y-119595995D01*
X152382683Y-119633991D01*
X152387208Y-119687926D01*
X152389844Y-119761425D01*
X152390772Y-119810347D01*
X152393911Y-120011535D01*
X152459926Y-120015336D01*
X152525940Y-120019136D01*
X152525940Y-118770650D01*
X152387624Y-118770650D01*
X152384097Y-118840254D01*
X152372215Y-118888569D01*
X152350020Y-118918631D01*
X152315559Y-118933471D01*
X152280742Y-118936436D01*
X152241329Y-118933028D01*
X152215171Y-118919617D01*
X152198814Y-118901896D01*
X152185937Y-118882835D01*
X152178272Y-118861601D01*
X152174861Y-118831849D01*
X152174749Y-118787236D01*
X152175897Y-118749880D01*
X152178532Y-118693604D01*
X152182456Y-118656658D01*
X152189063Y-118633223D01*
X152199749Y-118617480D01*
X152209833Y-118608380D01*
X152251970Y-118588537D01*
X152301840Y-118585332D01*
X152330476Y-118592168D01*
X152358828Y-118616464D01*
X152377609Y-118663728D01*
X152386712Y-118733624D01*
X152387624Y-118770650D01*
X152525940Y-118770650D01*
X152525940Y-118458614D01*
X152456782Y-118458614D01*
X152415260Y-118460256D01*
X152393838Y-118466087D01*
X152387626Y-118477461D01*
X152387624Y-118477798D01*
X152384742Y-118488938D01*
X152372030Y-118487673D01*
X152346757Y-118475433D01*
X152287869Y-118456707D01*
X152221615Y-118454739D01*
X152158759Y-118469184D01*
G37*
X152158759Y-118469184D02*
X152132247Y-118482282D01*
X152099553Y-118505106D01*
X152075725Y-118529996D01*
X152059406Y-118561249D01*
X152049240Y-118603166D01*
X152043872Y-118660044D01*
X152041944Y-118736184D01*
X152041831Y-118768917D01*
X152042161Y-118840656D01*
X152043527Y-118891927D01*
X152046500Y-118927404D01*
X152051649Y-118951763D01*
X152059543Y-118969680D01*
X152067757Y-118981902D01*
X152120187Y-119033905D01*
X152181930Y-119065184D01*
X152248536Y-119074592D01*
X152315558Y-119060980D01*
X152336792Y-119051354D01*
X152387624Y-119024859D01*
X152387624Y-119440052D01*
X152350525Y-119420868D01*
X152301643Y-119406025D01*
X152241561Y-119402222D01*
X152181564Y-119409243D01*
X152136256Y-119425013D01*
X152098675Y-119455047D01*
X152066564Y-119498024D01*
X152064150Y-119502436D01*
X152053967Y-119523221D01*
X152046530Y-119544170D01*
X152041411Y-119569548D01*
X152038181Y-119603618D01*
X152036413Y-119650641D01*
X152035677Y-119714882D01*
X152035544Y-119787176D01*
X152035544Y-120017822D01*
X152173861Y-120017822D01*
X152173861Y-119592533D01*
X152212549Y-119559979D01*
X152252738Y-119533940D01*
X152290797Y-119529205D01*
X152329066Y-119541389D01*
X152349462Y-119553320D01*
X152364642Y-119570313D01*
X152375438Y-119595995D01*
X152382683Y-119633991D01*
X152387208Y-119687926D01*
X152389844Y-119761425D01*
X152390772Y-119810347D01*
X152393911Y-120011535D01*
X152459926Y-120015336D01*
X152525940Y-120019136D01*
X152525940Y-118770650D01*
X152387624Y-118770650D01*
X152384097Y-118840254D01*
X152372215Y-118888569D01*
X152350020Y-118918631D01*
X152315559Y-118933471D01*
X152280742Y-118936436D01*
X152241329Y-118933028D01*
X152215171Y-118919617D01*
X152198814Y-118901896D01*
X152185937Y-118882835D01*
X152178272Y-118861601D01*
X152174861Y-118831849D01*
X152174749Y-118787236D01*
X152175897Y-118749880D01*
X152178532Y-118693604D01*
X152182456Y-118656658D01*
X152189063Y-118633223D01*
X152199749Y-118617480D01*
X152209833Y-118608380D01*
X152251970Y-118588537D01*
X152301840Y-118585332D01*
X152330476Y-118592168D01*
X152358828Y-118616464D01*
X152377609Y-118663728D01*
X152386712Y-118733624D01*
X152387624Y-118770650D01*
X152525940Y-118770650D01*
X152525940Y-118458614D01*
X152456782Y-118458614D01*
X152415260Y-118460256D01*
X152393838Y-118466087D01*
X152387626Y-118477461D01*
X152387624Y-118477798D01*
X152384742Y-118488938D01*
X152372030Y-118487673D01*
X152346757Y-118475433D01*
X152287869Y-118456707D01*
X152221615Y-118454739D01*
X152158759Y-118469184D01*
G36*
X151634210Y-119406555D02*
G01*
X151575055Y-119422339D01*
X151530023Y-119450948D01*
X151498246Y-119488419D01*
X151488366Y-119504411D01*
X151481073Y-119521163D01*
X151475974Y-119542592D01*
X151472679Y-119572616D01*
X151470797Y-119615154D01*
X151469937Y-119674122D01*
X151469707Y-119753440D01*
X151469703Y-119774484D01*
X151469703Y-120017822D01*
X151530059Y-120017822D01*
X151568557Y-120015126D01*
X151597023Y-120008295D01*
X151604155Y-120004083D01*
X151623652Y-119996813D01*
X151643566Y-120004083D01*
X151676353Y-120013160D01*
X151723978Y-120016813D01*
X151776764Y-120015228D01*
X151825036Y-120008589D01*
X151853218Y-120000072D01*
X151907753Y-119965063D01*
X151941835Y-119916479D01*
X151957157Y-119851882D01*
X151957299Y-119850223D01*
X151955955Y-119821566D01*
X151834356Y-119821566D01*
X151823726Y-119854161D01*
X151806410Y-119872505D01*
X151771652Y-119886379D01*
X151725773Y-119891917D01*
X151678988Y-119889191D01*
X151641514Y-119878274D01*
X151631015Y-119871269D01*
X151612668Y-119838904D01*
X151608020Y-119802111D01*
X151608020Y-119753763D01*
X151677582Y-119753763D01*
X151743667Y-119758850D01*
X151793764Y-119773263D01*
X151824929Y-119795729D01*
X151834356Y-119821566D01*
X151955955Y-119821566D01*
X151953987Y-119779647D01*
X151930710Y-119723845D01*
X151886948Y-119681647D01*
X151880899Y-119677808D01*
X151854907Y-119665309D01*
X151822735Y-119657740D01*
X151777760Y-119654061D01*
X151724331Y-119653216D01*
X151608020Y-119653169D01*
X151608020Y-119604411D01*
X151612953Y-119566581D01*
X151625543Y-119541236D01*
X151627017Y-119539887D01*
X151655034Y-119528800D01*
X151697326Y-119524503D01*
X151744064Y-119526615D01*
X151785418Y-119534756D01*
X151809957Y-119546965D01*
X151823253Y-119556746D01*
X151837294Y-119558613D01*
X151856671Y-119550600D01*
X151885976Y-119530739D01*
X151929803Y-119497063D01*
X151933825Y-119493909D01*
X151931764Y-119482236D01*
X151914568Y-119462822D01*
X151888433Y-119441248D01*
X151859552Y-119423096D01*
X151850478Y-119418809D01*
X151817380Y-119410256D01*
X151768880Y-119404155D01*
X151714695Y-119401708D01*
X151712161Y-119401703D01*
X151634210Y-119406555D01*
G37*
X151634210Y-119406555D02*
X151575055Y-119422339D01*
X151530023Y-119450948D01*
X151498246Y-119488419D01*
X151488366Y-119504411D01*
X151481073Y-119521163D01*
X151475974Y-119542592D01*
X151472679Y-119572616D01*
X151470797Y-119615154D01*
X151469937Y-119674122D01*
X151469707Y-119753440D01*
X151469703Y-119774484D01*
X151469703Y-120017822D01*
X151530059Y-120017822D01*
X151568557Y-120015126D01*
X151597023Y-120008295D01*
X151604155Y-120004083D01*
X151623652Y-119996813D01*
X151643566Y-120004083D01*
X151676353Y-120013160D01*
X151723978Y-120016813D01*
X151776764Y-120015228D01*
X151825036Y-120008589D01*
X151853218Y-120000072D01*
X151907753Y-119965063D01*
X151941835Y-119916479D01*
X151957157Y-119851882D01*
X151957299Y-119850223D01*
X151955955Y-119821566D01*
X151834356Y-119821566D01*
X151823726Y-119854161D01*
X151806410Y-119872505D01*
X151771652Y-119886379D01*
X151725773Y-119891917D01*
X151678988Y-119889191D01*
X151641514Y-119878274D01*
X151631015Y-119871269D01*
X151612668Y-119838904D01*
X151608020Y-119802111D01*
X151608020Y-119753763D01*
X151677582Y-119753763D01*
X151743667Y-119758850D01*
X151793764Y-119773263D01*
X151824929Y-119795729D01*
X151834356Y-119821566D01*
X151955955Y-119821566D01*
X151953987Y-119779647D01*
X151930710Y-119723845D01*
X151886948Y-119681647D01*
X151880899Y-119677808D01*
X151854907Y-119665309D01*
X151822735Y-119657740D01*
X151777760Y-119654061D01*
X151724331Y-119653216D01*
X151608020Y-119653169D01*
X151608020Y-119604411D01*
X151612953Y-119566581D01*
X151625543Y-119541236D01*
X151627017Y-119539887D01*
X151655034Y-119528800D01*
X151697326Y-119524503D01*
X151744064Y-119526615D01*
X151785418Y-119534756D01*
X151809957Y-119546965D01*
X151823253Y-119556746D01*
X151837294Y-119558613D01*
X151856671Y-119550600D01*
X151885976Y-119530739D01*
X151929803Y-119497063D01*
X151933825Y-119493909D01*
X151931764Y-119482236D01*
X151914568Y-119462822D01*
X151888433Y-119441248D01*
X151859552Y-119423096D01*
X151850478Y-119418809D01*
X151817380Y-119410256D01*
X151768880Y-119404155D01*
X151714695Y-119401708D01*
X151712161Y-119401703D01*
X151634210Y-119406555D01*
G36*
X151243356Y-119403020D02*
G01*
X151224539Y-119408660D01*
X151218473Y-119421053D01*
X151218218Y-119426647D01*
X151217129Y-119442230D01*
X151209632Y-119444676D01*
X151189381Y-119433993D01*
X151177351Y-119426694D01*
X151139400Y-119411063D01*
X151094072Y-119403334D01*
X151046544Y-119402740D01*
X151001995Y-119408513D01*
X150965602Y-119419884D01*
X150942543Y-119436088D01*
X150937996Y-119456355D01*
X150940291Y-119461843D01*
X150957020Y-119484626D01*
X150982963Y-119512647D01*
X150987655Y-119517177D01*
X151012383Y-119538005D01*
X151033718Y-119544735D01*
X151063555Y-119540038D01*
X151075508Y-119536917D01*
X151112705Y-119529421D01*
X151138859Y-119532792D01*
X151160946Y-119544681D01*
X151181178Y-119560635D01*
X151196079Y-119580700D01*
X151206434Y-119608702D01*
X151213029Y-119648467D01*
X151216649Y-119703823D01*
X151218078Y-119778594D01*
X151218218Y-119823740D01*
X151218218Y-120017822D01*
X151343960Y-120017822D01*
X151343960Y-119401683D01*
X151281089Y-119401683D01*
X151243356Y-119403020D01*
G37*
X151243356Y-119403020D02*
X151224539Y-119408660D01*
X151218473Y-119421053D01*
X151218218Y-119426647D01*
X151217129Y-119442230D01*
X151209632Y-119444676D01*
X151189381Y-119433993D01*
X151177351Y-119426694D01*
X151139400Y-119411063D01*
X151094072Y-119403334D01*
X151046544Y-119402740D01*
X151001995Y-119408513D01*
X150965602Y-119419884D01*
X150942543Y-119436088D01*
X150937996Y-119456355D01*
X150940291Y-119461843D01*
X150957020Y-119484626D01*
X150982963Y-119512647D01*
X150987655Y-119517177D01*
X151012383Y-119538005D01*
X151033718Y-119544735D01*
X151063555Y-119540038D01*
X151075508Y-119536917D01*
X151112705Y-119529421D01*
X151138859Y-119532792D01*
X151160946Y-119544681D01*
X151181178Y-119560635D01*
X151196079Y-119580700D01*
X151206434Y-119608702D01*
X151213029Y-119648467D01*
X151216649Y-119703823D01*
X151218078Y-119778594D01*
X151218218Y-119823740D01*
X151218218Y-120017822D01*
X151343960Y-120017822D01*
X151343960Y-119401683D01*
X151281089Y-119401683D01*
X151243356Y-119403020D01*
G36*
X150451188Y-120017822D02*
G01*
X150520346Y-120017822D01*
X150560488Y-120016645D01*
X150581394Y-120011772D01*
X150588922Y-120001186D01*
X150589505Y-119994029D01*
X150590774Y-119979676D01*
X150598779Y-119976923D01*
X150619815Y-119985771D01*
X150636173Y-119994029D01*
X150698977Y-120013597D01*
X150767248Y-120014729D01*
X150822752Y-120000135D01*
X150874438Y-119964877D01*
X150913838Y-119912835D01*
X150935413Y-119851450D01*
X150935962Y-119848018D01*
X150939167Y-119810571D01*
X150940761Y-119756813D01*
X150940633Y-119716155D01*
X150803279Y-119716155D01*
X150800097Y-119770194D01*
X150792859Y-119814735D01*
X150783060Y-119839888D01*
X150745989Y-119874260D01*
X150701974Y-119886582D01*
X150656584Y-119876618D01*
X150617797Y-119846895D01*
X150603108Y-119826905D01*
X150594519Y-119803050D01*
X150590496Y-119768230D01*
X150589505Y-119715930D01*
X150591278Y-119664139D01*
X150595963Y-119618634D01*
X150602603Y-119588181D01*
X150603710Y-119585452D01*
X150630491Y-119553000D01*
X150669579Y-119535183D01*
X150713315Y-119532306D01*
X150754038Y-119544674D01*
X150784087Y-119572593D01*
X150787204Y-119578148D01*
X150796961Y-119612022D01*
X150802277Y-119660728D01*
X150803279Y-119716155D01*
X150940633Y-119716155D01*
X150940568Y-119695540D01*
X150939664Y-119662563D01*
X150933514Y-119580981D01*
X150920733Y-119519730D01*
X150899471Y-119474449D01*
X150867878Y-119440779D01*
X150837207Y-119421014D01*
X150794354Y-119407120D01*
X150741056Y-119402354D01*
X150686480Y-119406236D01*
X150639792Y-119418282D01*
X150615124Y-119432693D01*
X150589505Y-119455878D01*
X150589505Y-119162773D01*
X150451188Y-119162773D01*
X150451188Y-120017822D01*
G37*
X150451188Y-120017822D02*
X150520346Y-120017822D01*
X150560488Y-120016645D01*
X150581394Y-120011772D01*
X150588922Y-120001186D01*
X150589505Y-119994029D01*
X150590774Y-119979676D01*
X150598779Y-119976923D01*
X150619815Y-119985771D01*
X150636173Y-119994029D01*
X150698977Y-120013597D01*
X150767248Y-120014729D01*
X150822752Y-120000135D01*
X150874438Y-119964877D01*
X150913838Y-119912835D01*
X150935413Y-119851450D01*
X150935962Y-119848018D01*
X150939167Y-119810571D01*
X150940761Y-119756813D01*
X150940633Y-119716155D01*
X150803279Y-119716155D01*
X150800097Y-119770194D01*
X150792859Y-119814735D01*
X150783060Y-119839888D01*
X150745989Y-119874260D01*
X150701974Y-119886582D01*
X150656584Y-119876618D01*
X150617797Y-119846895D01*
X150603108Y-119826905D01*
X150594519Y-119803050D01*
X150590496Y-119768230D01*
X150589505Y-119715930D01*
X150591278Y-119664139D01*
X150595963Y-119618634D01*
X150602603Y-119588181D01*
X150603710Y-119585452D01*
X150630491Y-119553000D01*
X150669579Y-119535183D01*
X150713315Y-119532306D01*
X150754038Y-119544674D01*
X150784087Y-119572593D01*
X150787204Y-119578148D01*
X150796961Y-119612022D01*
X150802277Y-119660728D01*
X150803279Y-119716155D01*
X150940633Y-119716155D01*
X150940568Y-119695540D01*
X150939664Y-119662563D01*
X150933514Y-119580981D01*
X150920733Y-119519730D01*
X150899471Y-119474449D01*
X150867878Y-119440779D01*
X150837207Y-119421014D01*
X150794354Y-119407120D01*
X150741056Y-119402354D01*
X150686480Y-119406236D01*
X150639792Y-119418282D01*
X150615124Y-119432693D01*
X150589505Y-119455878D01*
X150589505Y-119162773D01*
X150451188Y-119162773D01*
X150451188Y-120017822D01*
G36*
X149968476Y-119404237D02*
G01*
X149918745Y-119407971D01*
X149788709Y-119797773D01*
X149768322Y-119728614D01*
X149756054Y-119685874D01*
X149739915Y-119628115D01*
X149722488Y-119564625D01*
X149713274Y-119530570D01*
X149678612Y-119401683D01*
X149535609Y-119401683D01*
X149578354Y-119536857D01*
X149599404Y-119603342D01*
X149624833Y-119683539D01*
X149651390Y-119767193D01*
X149675098Y-119841782D01*
X149729098Y-120011535D01*
X149787402Y-120015328D01*
X149845705Y-120019122D01*
X149877321Y-119914734D01*
X149896818Y-119849889D01*
X149918096Y-119778400D01*
X149936692Y-119715263D01*
X149937426Y-119712750D01*
X149951316Y-119669969D01*
X149963571Y-119640779D01*
X149972154Y-119629741D01*
X149973918Y-119631018D01*
X149980109Y-119648130D01*
X149991872Y-119684787D01*
X150007775Y-119736378D01*
X150026386Y-119798294D01*
X150036457Y-119832352D01*
X150090993Y-120017822D01*
X150206736Y-120017822D01*
X150299263Y-119725471D01*
X150325256Y-119643462D01*
X150348934Y-119568987D01*
X150369180Y-119505544D01*
X150384874Y-119456632D01*
X150394898Y-119425749D01*
X150397945Y-119416726D01*
X150395533Y-119407487D01*
X150376592Y-119403441D01*
X150337177Y-119403846D01*
X150331007Y-119404152D01*
X150257914Y-119407971D01*
X150210043Y-119584010D01*
X150192447Y-119648211D01*
X150176723Y-119704649D01*
X150164254Y-119748422D01*
X150156426Y-119774630D01*
X150154980Y-119778903D01*
X150148986Y-119773990D01*
X150136899Y-119748532D01*
X150120107Y-119705997D01*
X150099997Y-119649850D01*
X150082997Y-119599130D01*
X150018206Y-119400504D01*
X149968476Y-119404237D01*
G37*
X149968476Y-119404237D02*
X149918745Y-119407971D01*
X149788709Y-119797773D01*
X149768322Y-119728614D01*
X149756054Y-119685874D01*
X149739915Y-119628115D01*
X149722488Y-119564625D01*
X149713274Y-119530570D01*
X149678612Y-119401683D01*
X149535609Y-119401683D01*
X149578354Y-119536857D01*
X149599404Y-119603342D01*
X149624833Y-119683539D01*
X149651390Y-119767193D01*
X149675098Y-119841782D01*
X149729098Y-120011535D01*
X149787402Y-120015328D01*
X149845705Y-120019122D01*
X149877321Y-119914734D01*
X149896818Y-119849889D01*
X149918096Y-119778400D01*
X149936692Y-119715263D01*
X149937426Y-119712750D01*
X149951316Y-119669969D01*
X149963571Y-119640779D01*
X149972154Y-119629741D01*
X149973918Y-119631018D01*
X149980109Y-119648130D01*
X149991872Y-119684787D01*
X150007775Y-119736378D01*
X150026386Y-119798294D01*
X150036457Y-119832352D01*
X150090993Y-120017822D01*
X150206736Y-120017822D01*
X150299263Y-119725471D01*
X150325256Y-119643462D01*
X150348934Y-119568987D01*
X150369180Y-119505544D01*
X150384874Y-119456632D01*
X150394898Y-119425749D01*
X150397945Y-119416726D01*
X150395533Y-119407487D01*
X150376592Y-119403441D01*
X150337177Y-119403846D01*
X150331007Y-119404152D01*
X150257914Y-119407971D01*
X150210043Y-119584010D01*
X150192447Y-119648211D01*
X150176723Y-119704649D01*
X150164254Y-119748422D01*
X150156426Y-119774630D01*
X150154980Y-119778903D01*
X150148986Y-119773990D01*
X150136899Y-119748532D01*
X150120107Y-119705997D01*
X150099997Y-119649850D01*
X150082997Y-119599130D01*
X150018206Y-119400504D01*
X149968476Y-119404237D01*
G36*
X149211589Y-119405417D02*
G01*
X149158589Y-119418290D01*
X149143269Y-119425110D01*
X149113572Y-119442974D01*
X149090780Y-119463093D01*
X149073917Y-119488962D01*
X149062002Y-119524073D01*
X149054058Y-119571920D01*
X149049106Y-119635996D01*
X149046169Y-119719794D01*
X149045053Y-119775768D01*
X149040948Y-120017822D01*
X149111068Y-120017822D01*
X149153607Y-120016038D01*
X149175524Y-120009942D01*
X149181188Y-119999706D01*
X149184179Y-119988637D01*
X149197549Y-119990754D01*
X149215767Y-119999629D01*
X149261376Y-120013233D01*
X149319993Y-120016899D01*
X149381646Y-120010903D01*
X149436362Y-119995521D01*
X149441270Y-119993386D01*
X149491277Y-119958255D01*
X149524244Y-119909419D01*
X149539413Y-119852333D01*
X149538254Y-119831824D01*
X149414492Y-119831824D01*
X149403587Y-119859425D01*
X149371255Y-119879204D01*
X149319090Y-119889819D01*
X149291213Y-119891228D01*
X149244753Y-119887620D01*
X149213871Y-119873597D01*
X149206336Y-119866931D01*
X149185924Y-119830666D01*
X149181188Y-119797773D01*
X149181188Y-119753763D01*
X149242487Y-119753763D01*
X149313744Y-119757395D01*
X149363724Y-119768818D01*
X149395304Y-119788824D01*
X149402374Y-119797743D01*
X149414492Y-119831824D01*
X149538254Y-119831824D01*
X149536029Y-119792456D01*
X149513337Y-119735244D01*
X149482376Y-119696580D01*
X149463624Y-119679864D01*
X149445267Y-119668878D01*
X149421381Y-119662180D01*
X149386043Y-119658326D01*
X149333331Y-119655873D01*
X149312423Y-119655168D01*
X149181188Y-119650879D01*
X149181380Y-119611158D01*
X149186463Y-119569405D01*
X149204838Y-119544158D01*
X149241961Y-119528030D01*
X149242957Y-119527742D01*
X149295590Y-119521400D01*
X149347094Y-119529684D01*
X149385370Y-119549827D01*
X149400728Y-119559773D01*
X149417270Y-119558397D01*
X149442725Y-119543987D01*
X149457672Y-119533817D01*
X149486909Y-119512088D01*
X149505020Y-119495800D01*
X149507926Y-119491137D01*
X149495960Y-119467005D01*
X149460604Y-119438185D01*
X149445247Y-119428461D01*
X149401099Y-119411714D01*
X149341602Y-119402227D01*
X149275513Y-119400095D01*
X149211589Y-119405417D01*
G37*
X149211589Y-119405417D02*
X149158589Y-119418290D01*
X149143269Y-119425110D01*
X149113572Y-119442974D01*
X149090780Y-119463093D01*
X149073917Y-119488962D01*
X149062002Y-119524073D01*
X149054058Y-119571920D01*
X149049106Y-119635996D01*
X149046169Y-119719794D01*
X149045053Y-119775768D01*
X149040948Y-120017822D01*
X149111068Y-120017822D01*
X149153607Y-120016038D01*
X149175524Y-120009942D01*
X149181188Y-119999706D01*
X149184179Y-119988637D01*
X149197549Y-119990754D01*
X149215767Y-119999629D01*
X149261376Y-120013233D01*
X149319993Y-120016899D01*
X149381646Y-120010903D01*
X149436362Y-119995521D01*
X149441270Y-119993386D01*
X149491277Y-119958255D01*
X149524244Y-119909419D01*
X149539413Y-119852333D01*
X149538254Y-119831824D01*
X149414492Y-119831824D01*
X149403587Y-119859425D01*
X149371255Y-119879204D01*
X149319090Y-119889819D01*
X149291213Y-119891228D01*
X149244753Y-119887620D01*
X149213871Y-119873597D01*
X149206336Y-119866931D01*
X149185924Y-119830666D01*
X149181188Y-119797773D01*
X149181188Y-119753763D01*
X149242487Y-119753763D01*
X149313744Y-119757395D01*
X149363724Y-119768818D01*
X149395304Y-119788824D01*
X149402374Y-119797743D01*
X149414492Y-119831824D01*
X149538254Y-119831824D01*
X149536029Y-119792456D01*
X149513337Y-119735244D01*
X149482376Y-119696580D01*
X149463624Y-119679864D01*
X149445267Y-119668878D01*
X149421381Y-119662180D01*
X149386043Y-119658326D01*
X149333331Y-119655873D01*
X149312423Y-119655168D01*
X149181188Y-119650879D01*
X149181380Y-119611158D01*
X149186463Y-119569405D01*
X149204838Y-119544158D01*
X149241961Y-119528030D01*
X149242957Y-119527742D01*
X149295590Y-119521400D01*
X149347094Y-119529684D01*
X149385370Y-119549827D01*
X149400728Y-119559773D01*
X149417270Y-119558397D01*
X149442725Y-119543987D01*
X149457672Y-119533817D01*
X149486909Y-119512088D01*
X149505020Y-119495800D01*
X149507926Y-119491137D01*
X149495960Y-119467005D01*
X149460604Y-119438185D01*
X149445247Y-119428461D01*
X149401099Y-119411714D01*
X149341602Y-119402227D01*
X149275513Y-119400095D01*
X149211589Y-119405417D01*
G36*
X148614745Y-119401486D02*
G01*
X148566405Y-119411015D01*
X148538886Y-119425125D01*
X148509936Y-119448568D01*
X148551124Y-119500571D01*
X148576518Y-119532064D01*
X148593762Y-119547428D01*
X148610898Y-119549776D01*
X148635973Y-119542217D01*
X148647743Y-119537941D01*
X148695730Y-119531631D01*
X148739676Y-119545156D01*
X148771940Y-119575710D01*
X148777181Y-119585452D01*
X148782888Y-119611258D01*
X148787294Y-119658817D01*
X148790189Y-119724758D01*
X148791369Y-119805710D01*
X148791386Y-119817226D01*
X148791386Y-120017822D01*
X148929703Y-120017822D01*
X148929703Y-119401683D01*
X148860544Y-119401683D01*
X148820667Y-119402725D01*
X148799893Y-119407358D01*
X148792211Y-119417849D01*
X148791386Y-119427745D01*
X148791386Y-119453806D01*
X148758255Y-119427745D01*
X148720265Y-119409965D01*
X148669230Y-119401174D01*
X148614745Y-119401486D01*
G37*
X148614745Y-119401486D02*
X148566405Y-119411015D01*
X148538886Y-119425125D01*
X148509936Y-119448568D01*
X148551124Y-119500571D01*
X148576518Y-119532064D01*
X148593762Y-119547428D01*
X148610898Y-119549776D01*
X148635973Y-119542217D01*
X148647743Y-119537941D01*
X148695730Y-119531631D01*
X148739676Y-119545156D01*
X148771940Y-119575710D01*
X148777181Y-119585452D01*
X148782888Y-119611258D01*
X148787294Y-119658817D01*
X148790189Y-119724758D01*
X148791369Y-119805710D01*
X148791386Y-119817226D01*
X148791386Y-120017822D01*
X148929703Y-120017822D01*
X148929703Y-119401683D01*
X148860544Y-119401683D01*
X148820667Y-119402725D01*
X148799893Y-119407358D01*
X148792211Y-119417849D01*
X148791386Y-119427745D01*
X148791386Y-119453806D01*
X148758255Y-119427745D01*
X148720265Y-119409965D01*
X148669230Y-119401174D01*
X148614745Y-119401486D01*
G36*
X148217419Y-119404970D02*
G01*
X148157315Y-119420597D01*
X148106979Y-119452848D01*
X148082607Y-119476940D01*
X148042655Y-119533895D01*
X148019758Y-119599965D01*
X148011892Y-119681182D01*
X148011852Y-119687748D01*
X148011782Y-119753763D01*
X148391736Y-119753763D01*
X148383637Y-119788342D01*
X148369013Y-119819659D01*
X148343419Y-119852291D01*
X148338065Y-119857500D01*
X148292057Y-119885694D01*
X148239590Y-119890475D01*
X148179197Y-119871926D01*
X148168960Y-119866931D01*
X148137561Y-119851745D01*
X148116530Y-119843094D01*
X148112861Y-119842293D01*
X148100052Y-119850063D01*
X148075622Y-119869072D01*
X148063221Y-119879460D01*
X148037524Y-119903321D01*
X148029085Y-119919077D01*
X148034942Y-119933571D01*
X148038072Y-119937534D01*
X148059275Y-119954879D01*
X148094262Y-119975959D01*
X148118663Y-119988265D01*
X148187928Y-120009946D01*
X148264612Y-120016971D01*
X148337235Y-120008647D01*
X148357574Y-120002686D01*
X148420524Y-119968952D01*
X148467185Y-119917045D01*
X148497827Y-119846459D01*
X148512718Y-119756692D01*
X148514353Y-119709753D01*
X148509579Y-119641413D01*
X148389010Y-119641413D01*
X148377348Y-119646465D01*
X148346002Y-119650429D01*
X148300429Y-119652768D01*
X148269554Y-119653169D01*
X148214019Y-119652783D01*
X148178967Y-119650975D01*
X148159738Y-119646773D01*
X148151670Y-119639203D01*
X148150099Y-119628218D01*
X148160879Y-119594381D01*
X148188020Y-119560940D01*
X148223723Y-119535272D01*
X148259440Y-119524772D01*
X148307952Y-119534086D01*
X148349947Y-119561013D01*
X148379064Y-119599827D01*
X148389010Y-119641413D01*
X148509579Y-119641413D01*
X148507401Y-119610236D01*
X148485945Y-119530949D01*
X148449530Y-119471263D01*
X148397703Y-119430549D01*
X148330010Y-119408179D01*
X148293338Y-119403871D01*
X148217419Y-119404970D01*
G37*
X148217419Y-119404970D02*
X148157315Y-119420597D01*
X148106979Y-119452848D01*
X148082607Y-119476940D01*
X148042655Y-119533895D01*
X148019758Y-119599965D01*
X148011892Y-119681182D01*
X148011852Y-119687748D01*
X148011782Y-119753763D01*
X148391736Y-119753763D01*
X148383637Y-119788342D01*
X148369013Y-119819659D01*
X148343419Y-119852291D01*
X148338065Y-119857500D01*
X148292057Y-119885694D01*
X148239590Y-119890475D01*
X148179197Y-119871926D01*
X148168960Y-119866931D01*
X148137561Y-119851745D01*
X148116530Y-119843094D01*
X148112861Y-119842293D01*
X148100052Y-119850063D01*
X148075622Y-119869072D01*
X148063221Y-119879460D01*
X148037524Y-119903321D01*
X148029085Y-119919077D01*
X148034942Y-119933571D01*
X148038072Y-119937534D01*
X148059275Y-119954879D01*
X148094262Y-119975959D01*
X148118663Y-119988265D01*
X148187928Y-120009946D01*
X148264612Y-120016971D01*
X148337235Y-120008647D01*
X148357574Y-120002686D01*
X148420524Y-119968952D01*
X148467185Y-119917045D01*
X148497827Y-119846459D01*
X148512718Y-119756692D01*
X148514353Y-119709753D01*
X148509579Y-119641413D01*
X148389010Y-119641413D01*
X148377348Y-119646465D01*
X148346002Y-119650429D01*
X148300429Y-119652768D01*
X148269554Y-119653169D01*
X148214019Y-119652783D01*
X148178967Y-119650975D01*
X148159738Y-119646773D01*
X148151670Y-119639203D01*
X148150099Y-119628218D01*
X148160879Y-119594381D01*
X148188020Y-119560940D01*
X148223723Y-119535272D01*
X148259440Y-119524772D01*
X148307952Y-119534086D01*
X148349947Y-119561013D01*
X148379064Y-119599827D01*
X148389010Y-119641413D01*
X148509579Y-119641413D01*
X148507401Y-119610236D01*
X148485945Y-119530949D01*
X148449530Y-119471263D01*
X148397703Y-119430549D01*
X148330010Y-119408179D01*
X148293338Y-119403871D01*
X148217419Y-119404970D01*
G36*
X152788261Y-118465148D02*
G01*
X152722479Y-118494231D01*
X152672540Y-118542793D01*
X152638374Y-118610908D01*
X152619907Y-118698651D01*
X152618583Y-118712351D01*
X152617546Y-118808939D01*
X152630993Y-118893602D01*
X152658108Y-118962221D01*
X152672627Y-118984294D01*
X152723201Y-119031011D01*
X152787609Y-119061268D01*
X152859666Y-119073824D01*
X152933185Y-119067439D01*
X152989072Y-119047772D01*
X153037132Y-119014629D01*
X153076412Y-118971175D01*
X153077092Y-118970158D01*
X153093044Y-118943338D01*
X153103410Y-118916368D01*
X153109688Y-118882332D01*
X153113373Y-118834310D01*
X153114997Y-118794931D01*
X153115672Y-118759219D01*
X152989955Y-118759219D01*
X152988726Y-118794770D01*
X152984266Y-118842094D01*
X152976397Y-118872465D01*
X152962207Y-118894072D01*
X152948917Y-118906694D01*
X152901802Y-118933122D01*
X152852505Y-118936653D01*
X152806593Y-118917639D01*
X152783638Y-118896331D01*
X152767096Y-118874859D01*
X152757421Y-118854313D01*
X152753174Y-118827574D01*
X152752920Y-118787523D01*
X152754228Y-118750638D01*
X152757043Y-118697947D01*
X152761505Y-118663772D01*
X152769548Y-118641480D01*
X152783103Y-118624442D01*
X152793845Y-118614703D01*
X152838777Y-118589123D01*
X152887249Y-118587847D01*
X152927894Y-118602999D01*
X152962567Y-118634642D01*
X152983224Y-118686620D01*
X152989955Y-118759219D01*
X153115672Y-118759219D01*
X153116479Y-118716621D01*
X153113948Y-118658056D01*
X153106362Y-118614007D01*
X153092681Y-118579248D01*
X153071865Y-118548551D01*
X153064147Y-118539436D01*
X153015889Y-118494021D01*
X152964128Y-118467493D01*
X152900828Y-118456379D01*
X152869961Y-118455471D01*
X152788261Y-118465148D01*
G37*
X152788261Y-118465148D02*
X152722479Y-118494231D01*
X152672540Y-118542793D01*
X152638374Y-118610908D01*
X152619907Y-118698651D01*
X152618583Y-118712351D01*
X152617546Y-118808939D01*
X152630993Y-118893602D01*
X152658108Y-118962221D01*
X152672627Y-118984294D01*
X152723201Y-119031011D01*
X152787609Y-119061268D01*
X152859666Y-119073824D01*
X152933185Y-119067439D01*
X152989072Y-119047772D01*
X153037132Y-119014629D01*
X153076412Y-118971175D01*
X153077092Y-118970158D01*
X153093044Y-118943338D01*
X153103410Y-118916368D01*
X153109688Y-118882332D01*
X153113373Y-118834310D01*
X153114997Y-118794931D01*
X153115672Y-118759219D01*
X152989955Y-118759219D01*
X152988726Y-118794770D01*
X152984266Y-118842094D01*
X152976397Y-118872465D01*
X152962207Y-118894072D01*
X152948917Y-118906694D01*
X152901802Y-118933122D01*
X152852505Y-118936653D01*
X152806593Y-118917639D01*
X152783638Y-118896331D01*
X152767096Y-118874859D01*
X152757421Y-118854313D01*
X152753174Y-118827574D01*
X152752920Y-118787523D01*
X152754228Y-118750638D01*
X152757043Y-118697947D01*
X152761505Y-118663772D01*
X152769548Y-118641480D01*
X152783103Y-118624442D01*
X152793845Y-118614703D01*
X152838777Y-118589123D01*
X152887249Y-118587847D01*
X152927894Y-118602999D01*
X152962567Y-118634642D01*
X152983224Y-118686620D01*
X152989955Y-118759219D01*
X153115672Y-118759219D01*
X153116479Y-118716621D01*
X153113948Y-118658056D01*
X153106362Y-118614007D01*
X153092681Y-118579248D01*
X153071865Y-118548551D01*
X153064147Y-118539436D01*
X153015889Y-118494021D01*
X152964128Y-118467493D01*
X152900828Y-118456379D01*
X152869961Y-118455471D01*
X152788261Y-118465148D01*
G36*
X151606699Y-118472614D02*
G01*
X151594168Y-118478514D01*
X151550799Y-118510283D01*
X151509790Y-118556646D01*
X151479168Y-118607696D01*
X151470459Y-118631166D01*
X151462512Y-118673091D01*
X151457774Y-118723757D01*
X151457199Y-118744679D01*
X151457129Y-118810693D01*
X151837083Y-118810693D01*
X151828983Y-118845273D01*
X151809104Y-118886170D01*
X151774347Y-118921514D01*
X151732998Y-118944282D01*
X151706649Y-118949010D01*
X151670916Y-118943273D01*
X151628282Y-118928882D01*
X151613799Y-118922262D01*
X151560240Y-118895513D01*
X151514533Y-118930376D01*
X151488158Y-118953955D01*
X151474124Y-118973417D01*
X151473414Y-118979129D01*
X151485951Y-118992973D01*
X151513428Y-119014012D01*
X151538366Y-119030425D01*
X151605664Y-119059930D01*
X151681110Y-119073284D01*
X151755888Y-119069812D01*
X151815495Y-119051663D01*
X151876941Y-119012784D01*
X151920608Y-118961595D01*
X151947926Y-118895367D01*
X151960322Y-118811371D01*
X151961421Y-118772936D01*
X151957022Y-118684861D01*
X151956482Y-118682299D01*
X151830582Y-118682299D01*
X151827115Y-118690558D01*
X151812863Y-118695113D01*
X151783470Y-118697065D01*
X151734575Y-118697517D01*
X151715748Y-118697525D01*
X151658467Y-118696843D01*
X151622141Y-118694364D01*
X151602604Y-118689443D01*
X151595690Y-118681434D01*
X151595445Y-118678862D01*
X151603336Y-118658423D01*
X151623085Y-118629789D01*
X151631575Y-118619763D01*
X151663094Y-118591408D01*
X151695949Y-118580259D01*
X151713651Y-118579327D01*
X151761539Y-118590981D01*
X151801699Y-118622285D01*
X151827173Y-118667752D01*
X151827625Y-118669233D01*
X151830582Y-118682299D01*
X151956482Y-118682299D01*
X151942392Y-118615510D01*
X151916038Y-118560025D01*
X151883807Y-118520639D01*
X151824217Y-118477931D01*
X151754168Y-118455109D01*
X151679661Y-118453046D01*
X151606699Y-118472614D01*
G37*
X151606699Y-118472614D02*
X151594168Y-118478514D01*
X151550799Y-118510283D01*
X151509790Y-118556646D01*
X151479168Y-118607696D01*
X151470459Y-118631166D01*
X151462512Y-118673091D01*
X151457774Y-118723757D01*
X151457199Y-118744679D01*
X151457129Y-118810693D01*
X151837083Y-118810693D01*
X151828983Y-118845273D01*
X151809104Y-118886170D01*
X151774347Y-118921514D01*
X151732998Y-118944282D01*
X151706649Y-118949010D01*
X151670916Y-118943273D01*
X151628282Y-118928882D01*
X151613799Y-118922262D01*
X151560240Y-118895513D01*
X151514533Y-118930376D01*
X151488158Y-118953955D01*
X151474124Y-118973417D01*
X151473414Y-118979129D01*
X151485951Y-118992973D01*
X151513428Y-119014012D01*
X151538366Y-119030425D01*
X151605664Y-119059930D01*
X151681110Y-119073284D01*
X151755888Y-119069812D01*
X151815495Y-119051663D01*
X151876941Y-119012784D01*
X151920608Y-118961595D01*
X151947926Y-118895367D01*
X151960322Y-118811371D01*
X151961421Y-118772936D01*
X151957022Y-118684861D01*
X151956482Y-118682299D01*
X151830582Y-118682299D01*
X151827115Y-118690558D01*
X151812863Y-118695113D01*
X151783470Y-118697065D01*
X151734575Y-118697517D01*
X151715748Y-118697525D01*
X151658467Y-118696843D01*
X151622141Y-118694364D01*
X151602604Y-118689443D01*
X151595690Y-118681434D01*
X151595445Y-118678862D01*
X151603336Y-118658423D01*
X151623085Y-118629789D01*
X151631575Y-118619763D01*
X151663094Y-118591408D01*
X151695949Y-118580259D01*
X151713651Y-118579327D01*
X151761539Y-118590981D01*
X151801699Y-118622285D01*
X151827173Y-118667752D01*
X151827625Y-118669233D01*
X151830582Y-118682299D01*
X151956482Y-118682299D01*
X151942392Y-118615510D01*
X151916038Y-118560025D01*
X151883807Y-118520639D01*
X151824217Y-118477931D01*
X151754168Y-118455109D01*
X151679661Y-118453046D01*
X151606699Y-118472614D01*
G36*
X150235983Y-118456452D02*
G01*
X150188366Y-118465482D01*
X150138966Y-118484370D01*
X150133688Y-118486777D01*
X150096226Y-118506476D01*
X150070283Y-118524781D01*
X150061897Y-118536508D01*
X150069883Y-118555632D01*
X150089280Y-118583850D01*
X150097890Y-118594384D01*
X150133372Y-118635847D01*
X150179115Y-118608858D01*
X150222650Y-118590878D01*
X150272950Y-118581267D01*
X150321188Y-118580660D01*
X150358533Y-118589691D01*
X150367495Y-118595327D01*
X150384563Y-118621171D01*
X150386637Y-118650941D01*
X150373866Y-118674197D01*
X150366312Y-118678708D01*
X150343675Y-118684309D01*
X150303885Y-118690892D01*
X150254834Y-118697183D01*
X150245785Y-118698170D01*
X150167004Y-118711798D01*
X150109864Y-118734946D01*
X150071970Y-118769752D01*
X150050921Y-118818354D01*
X150044365Y-118877718D01*
X150053423Y-118945198D01*
X150082836Y-118998188D01*
X150132722Y-119036783D01*
X150203200Y-119061081D01*
X150281435Y-119070667D01*
X150345234Y-119070552D01*
X150396984Y-119061845D01*
X150432327Y-119049825D01*
X150476983Y-119028880D01*
X150518253Y-119004574D01*
X150532921Y-118993876D01*
X150570643Y-118963084D01*
X150525148Y-118917049D01*
X150479653Y-118871013D01*
X150427928Y-118905243D01*
X150376048Y-118930952D01*
X150320649Y-118944399D01*
X150267395Y-118945818D01*
X150221951Y-118935443D01*
X150189984Y-118913507D01*
X150179662Y-118894998D01*
X150181211Y-118865314D01*
X150206860Y-118842615D01*
X150256540Y-118826940D01*
X150310969Y-118819695D01*
X150394736Y-118805873D01*
X150456967Y-118779796D01*
X150498493Y-118740699D01*
X150520147Y-118687820D01*
X150523147Y-118625126D01*
X150508329Y-118559642D01*
X150474546Y-118510144D01*
X150421495Y-118476408D01*
X150348874Y-118458207D01*
X150295072Y-118454639D01*
X150235983Y-118456452D01*
G37*
X150235983Y-118456452D02*
X150188366Y-118465482D01*
X150138966Y-118484370D01*
X150133688Y-118486777D01*
X150096226Y-118506476D01*
X150070283Y-118524781D01*
X150061897Y-118536508D01*
X150069883Y-118555632D01*
X150089280Y-118583850D01*
X150097890Y-118594384D01*
X150133372Y-118635847D01*
X150179115Y-118608858D01*
X150222650Y-118590878D01*
X150272950Y-118581267D01*
X150321188Y-118580660D01*
X150358533Y-118589691D01*
X150367495Y-118595327D01*
X150384563Y-118621171D01*
X150386637Y-118650941D01*
X150373866Y-118674197D01*
X150366312Y-118678708D01*
X150343675Y-118684309D01*
X150303885Y-118690892D01*
X150254834Y-118697183D01*
X150245785Y-118698170D01*
X150167004Y-118711798D01*
X150109864Y-118734946D01*
X150071970Y-118769752D01*
X150050921Y-118818354D01*
X150044365Y-118877718D01*
X150053423Y-118945198D01*
X150082836Y-118998188D01*
X150132722Y-119036783D01*
X150203200Y-119061081D01*
X150281435Y-119070667D01*
X150345234Y-119070552D01*
X150396984Y-119061845D01*
X150432327Y-119049825D01*
X150476983Y-119028880D01*
X150518253Y-119004574D01*
X150532921Y-118993876D01*
X150570643Y-118963084D01*
X150525148Y-118917049D01*
X150479653Y-118871013D01*
X150427928Y-118905243D01*
X150376048Y-118930952D01*
X150320649Y-118944399D01*
X150267395Y-118945818D01*
X150221951Y-118935443D01*
X150189984Y-118913507D01*
X150179662Y-118894998D01*
X150181211Y-118865314D01*
X150206860Y-118842615D01*
X150256540Y-118826940D01*
X150310969Y-118819695D01*
X150394736Y-118805873D01*
X150456967Y-118779796D01*
X150498493Y-118740699D01*
X150520147Y-118687820D01*
X150523147Y-118625126D01*
X150508329Y-118559642D01*
X150474546Y-118510144D01*
X150421495Y-118476408D01*
X150348874Y-118458207D01*
X150295072Y-118454639D01*
X150235983Y-118456452D01*
G36*
X149639238Y-118466055D02*
G01*
X149575637Y-118500692D01*
X149525877Y-118555372D01*
X149502432Y-118599842D01*
X149492366Y-118639121D01*
X149485844Y-118695116D01*
X149483049Y-118759621D01*
X149484164Y-118824429D01*
X149489374Y-118881334D01*
X149495459Y-118911727D01*
X149515986Y-118953306D01*
X149551537Y-118997468D01*
X149594381Y-119036087D01*
X149636789Y-119061034D01*
X149637823Y-119061430D01*
X149690447Y-119072331D01*
X149752812Y-119072601D01*
X149812076Y-119062676D01*
X149834960Y-119054722D01*
X149893898Y-119021300D01*
X149936110Y-118977511D01*
X149963844Y-118919538D01*
X149979349Y-118843565D01*
X149982857Y-118803771D01*
X149982410Y-118753766D01*
X149847624Y-118753766D01*
X149843083Y-118826732D01*
X149830014Y-118882334D01*
X149809244Y-118917861D01*
X149794448Y-118928020D01*
X149756536Y-118935104D01*
X149711473Y-118933007D01*
X149672513Y-118922812D01*
X149662296Y-118917204D01*
X149635341Y-118884538D01*
X149617549Y-118834545D01*
X149609976Y-118773705D01*
X149613675Y-118708497D01*
X149621943Y-118669253D01*
X149645680Y-118623805D01*
X149683151Y-118595396D01*
X149728280Y-118585573D01*
X149774989Y-118595887D01*
X149810868Y-118621112D01*
X149829723Y-118641925D01*
X149840728Y-118662439D01*
X149845974Y-118690203D01*
X149847551Y-118732762D01*
X149847624Y-118753766D01*
X149982410Y-118753766D01*
X149981906Y-118697580D01*
X149964612Y-118610501D01*
X149930971Y-118542530D01*
X149880982Y-118493664D01*
X149814644Y-118463899D01*
X149800399Y-118460448D01*
X149714790Y-118452345D01*
X149639238Y-118466055D01*
G37*
X149639238Y-118466055D02*
X149575637Y-118500692D01*
X149525877Y-118555372D01*
X149502432Y-118599842D01*
X149492366Y-118639121D01*
X149485844Y-118695116D01*
X149483049Y-118759621D01*
X149484164Y-118824429D01*
X149489374Y-118881334D01*
X149495459Y-118911727D01*
X149515986Y-118953306D01*
X149551537Y-118997468D01*
X149594381Y-119036087D01*
X149636789Y-119061034D01*
X149637823Y-119061430D01*
X149690447Y-119072331D01*
X149752812Y-119072601D01*
X149812076Y-119062676D01*
X149834960Y-119054722D01*
X149893898Y-119021300D01*
X149936110Y-118977511D01*
X149963844Y-118919538D01*
X149979349Y-118843565D01*
X149982857Y-118803771D01*
X149982410Y-118753766D01*
X149847624Y-118753766D01*
X149843083Y-118826732D01*
X149830014Y-118882334D01*
X149809244Y-118917861D01*
X149794448Y-118928020D01*
X149756536Y-118935104D01*
X149711473Y-118933007D01*
X149672513Y-118922812D01*
X149662296Y-118917204D01*
X149635341Y-118884538D01*
X149617549Y-118834545D01*
X149609976Y-118773705D01*
X149613675Y-118708497D01*
X149621943Y-118669253D01*
X149645680Y-118623805D01*
X149683151Y-118595396D01*
X149728280Y-118585573D01*
X149774989Y-118595887D01*
X149810868Y-118621112D01*
X149829723Y-118641925D01*
X149840728Y-118662439D01*
X149845974Y-118690203D01*
X149847551Y-118732762D01*
X149847624Y-118753766D01*
X149982410Y-118753766D01*
X149981906Y-118697580D01*
X149964612Y-118610501D01*
X149930971Y-118542530D01*
X149880982Y-118493664D01*
X149814644Y-118463899D01*
X149800399Y-118460448D01*
X149714790Y-118452345D01*
X149639238Y-118466055D01*
G36*
X149256633Y-118654342D02*
G01*
X149255445Y-118746563D01*
X149251103Y-118816610D01*
X149242442Y-118867381D01*
X149228296Y-118901772D01*
X149207500Y-118922679D01*
X149178890Y-118933000D01*
X149143465Y-118935636D01*
X149106364Y-118932682D01*
X149078182Y-118921889D01*
X149057757Y-118900360D01*
X149043921Y-118865199D01*
X149035509Y-118813510D01*
X149031357Y-118742394D01*
X149030297Y-118654342D01*
X149030297Y-118458614D01*
X148891980Y-118458614D01*
X148891980Y-119062179D01*
X148961138Y-119062179D01*
X149002830Y-119060489D01*
X149024299Y-119054556D01*
X149030297Y-119043293D01*
X149033909Y-119033261D01*
X149048286Y-119035383D01*
X149077264Y-119049580D01*
X149143681Y-119071480D01*
X149214125Y-119069928D01*
X149281623Y-119046147D01*
X149313767Y-119027362D01*
X149338285Y-119007022D01*
X149356196Y-118981573D01*
X149368521Y-118947458D01*
X149376277Y-118901121D01*
X149380484Y-118839007D01*
X149382160Y-118757561D01*
X149382376Y-118694578D01*
X149382376Y-118458614D01*
X149256633Y-118458614D01*
X149256633Y-118654342D01*
G37*
X149256633Y-118654342D02*
X149255445Y-118746563D01*
X149251103Y-118816610D01*
X149242442Y-118867381D01*
X149228296Y-118901772D01*
X149207500Y-118922679D01*
X149178890Y-118933000D01*
X149143465Y-118935636D01*
X149106364Y-118932682D01*
X149078182Y-118921889D01*
X149057757Y-118900360D01*
X149043921Y-118865199D01*
X149035509Y-118813510D01*
X149031357Y-118742394D01*
X149030297Y-118654342D01*
X149030297Y-118458614D01*
X148891980Y-118458614D01*
X148891980Y-119062179D01*
X148961138Y-119062179D01*
X149002830Y-119060489D01*
X149024299Y-119054556D01*
X149030297Y-119043293D01*
X149033909Y-119033261D01*
X149048286Y-119035383D01*
X149077264Y-119049580D01*
X149143681Y-119071480D01*
X149214125Y-119069928D01*
X149281623Y-119046147D01*
X149313767Y-119027362D01*
X149338285Y-119007022D01*
X149356196Y-118981573D01*
X149368521Y-118947458D01*
X149376277Y-118901121D01*
X149380484Y-118839007D01*
X149382160Y-118757561D01*
X149382376Y-118694578D01*
X149382376Y-118458614D01*
X149256633Y-118458614D01*
X149256633Y-118654342D01*
G36*
X148032774Y-118463880D02*
G01*
X147959920Y-118494830D01*
X147936973Y-118509895D01*
X147907646Y-118533048D01*
X147889236Y-118551253D01*
X147886039Y-118557183D01*
X147895065Y-118570340D01*
X147918163Y-118592667D01*
X147936656Y-118608250D01*
X147987272Y-118648926D01*
X148027240Y-118615295D01*
X148058126Y-118593584D01*
X148088241Y-118586090D01*
X148122708Y-118587920D01*
X148177439Y-118601528D01*
X148215114Y-118629772D01*
X148238009Y-118675433D01*
X148248403Y-118741289D01*
X148248405Y-118741331D01*
X148247506Y-118814939D01*
X148233537Y-118868946D01*
X148205672Y-118905716D01*
X148186675Y-118918168D01*
X148136224Y-118933673D01*
X148082337Y-118933683D01*
X148035454Y-118918638D01*
X148024356Y-118911287D01*
X147996524Y-118892511D01*
X147974764Y-118889434D01*
X147951296Y-118903409D01*
X147925351Y-118928510D01*
X147884284Y-118970880D01*
X147929879Y-119008464D01*
X148000326Y-119050882D01*
X148079767Y-119071785D01*
X148162785Y-119070272D01*
X148217306Y-119056411D01*
X148281030Y-119022135D01*
X148331995Y-118968212D01*
X148355149Y-118930149D01*
X148373901Y-118875536D01*
X148383285Y-118806369D01*
X148383357Y-118731407D01*
X148374176Y-118659409D01*
X148355801Y-118599137D01*
X148352907Y-118592958D01*
X148310048Y-118532351D01*
X148252021Y-118488224D01*
X148183409Y-118461493D01*
X148108799Y-118453073D01*
X148032774Y-118463880D01*
G37*
X148032774Y-118463880D02*
X147959920Y-118494830D01*
X147936973Y-118509895D01*
X147907646Y-118533048D01*
X147889236Y-118551253D01*
X147886039Y-118557183D01*
X147895065Y-118570340D01*
X147918163Y-118592667D01*
X147936656Y-118608250D01*
X147987272Y-118648926D01*
X148027240Y-118615295D01*
X148058126Y-118593584D01*
X148088241Y-118586090D01*
X148122708Y-118587920D01*
X148177439Y-118601528D01*
X148215114Y-118629772D01*
X148238009Y-118675433D01*
X148248403Y-118741289D01*
X148248405Y-118741331D01*
X148247506Y-118814939D01*
X148233537Y-118868946D01*
X148205672Y-118905716D01*
X148186675Y-118918168D01*
X148136224Y-118933673D01*
X148082337Y-118933683D01*
X148035454Y-118918638D01*
X148024356Y-118911287D01*
X147996524Y-118892511D01*
X147974764Y-118889434D01*
X147951296Y-118903409D01*
X147925351Y-118928510D01*
X147884284Y-118970880D01*
X147929879Y-119008464D01*
X148000326Y-119050882D01*
X148079767Y-119071785D01*
X148162785Y-119070272D01*
X148217306Y-119056411D01*
X148281030Y-119022135D01*
X148331995Y-118968212D01*
X148355149Y-118930149D01*
X148373901Y-118875536D01*
X148383285Y-118806369D01*
X148383357Y-118731407D01*
X148374176Y-118659409D01*
X148355801Y-118599137D01*
X148352907Y-118592958D01*
X148310048Y-118532351D01*
X148252021Y-118488224D01*
X148183409Y-118461493D01*
X148108799Y-118453073D01*
X148032774Y-118463880D01*
G36*
X147572102Y-118456457D02*
G01*
X147539904Y-118464279D01*
X147478175Y-118492921D01*
X147425390Y-118536667D01*
X147388859Y-118589117D01*
X147383840Y-118600893D01*
X147376955Y-118631740D01*
X147372136Y-118677371D01*
X147370495Y-118723492D01*
X147370495Y-118810693D01*
X147552822Y-118810693D01*
X147628021Y-118810978D01*
X147680997Y-118812704D01*
X147714675Y-118817181D01*
X147731980Y-118825720D01*
X147735837Y-118839630D01*
X147729171Y-118860222D01*
X147717230Y-118884315D01*
X147683920Y-118924525D01*
X147637632Y-118944558D01*
X147581056Y-118943905D01*
X147516969Y-118922101D01*
X147461583Y-118895193D01*
X147415625Y-118931532D01*
X147369667Y-118967872D01*
X147412904Y-119007819D01*
X147470626Y-119045563D01*
X147541614Y-119068320D01*
X147617971Y-119074688D01*
X147691801Y-119063268D01*
X147703713Y-119059393D01*
X147768601Y-119025506D01*
X147816870Y-118974986D01*
X147849535Y-118906325D01*
X147867615Y-118818014D01*
X147867825Y-118816121D01*
X147869444Y-118719878D01*
X147862900Y-118685542D01*
X147735148Y-118685542D01*
X147723416Y-118690822D01*
X147691562Y-118694867D01*
X147644603Y-118697176D01*
X147614846Y-118697525D01*
X147559352Y-118697306D01*
X147524654Y-118695916D01*
X147506399Y-118692251D01*
X147500234Y-118685210D01*
X147501805Y-118673690D01*
X147503122Y-118669233D01*
X147525618Y-118627355D01*
X147560997Y-118593604D01*
X147592220Y-118578773D01*
X147633699Y-118579668D01*
X147675731Y-118598164D01*
X147710988Y-118628786D01*
X147732146Y-118666062D01*
X147735148Y-118685542D01*
X147862900Y-118685542D01*
X147853310Y-118635229D01*
X147821302Y-118564191D01*
X147775299Y-118508779D01*
X147717179Y-118471009D01*
X147648820Y-118452896D01*
X147572102Y-118456457D01*
G37*
X147572102Y-118456457D02*
X147539904Y-118464279D01*
X147478175Y-118492921D01*
X147425390Y-118536667D01*
X147388859Y-118589117D01*
X147383840Y-118600893D01*
X147376955Y-118631740D01*
X147372136Y-118677371D01*
X147370495Y-118723492D01*
X147370495Y-118810693D01*
X147552822Y-118810693D01*
X147628021Y-118810978D01*
X147680997Y-118812704D01*
X147714675Y-118817181D01*
X147731980Y-118825720D01*
X147735837Y-118839630D01*
X147729171Y-118860222D01*
X147717230Y-118884315D01*
X147683920Y-118924525D01*
X147637632Y-118944558D01*
X147581056Y-118943905D01*
X147516969Y-118922101D01*
X147461583Y-118895193D01*
X147415625Y-118931532D01*
X147369667Y-118967872D01*
X147412904Y-119007819D01*
X147470626Y-119045563D01*
X147541614Y-119068320D01*
X147617971Y-119074688D01*
X147691801Y-119063268D01*
X147703713Y-119059393D01*
X147768601Y-119025506D01*
X147816870Y-118974986D01*
X147849535Y-118906325D01*
X147867615Y-118818014D01*
X147867825Y-118816121D01*
X147869444Y-118719878D01*
X147862900Y-118685542D01*
X147735148Y-118685542D01*
X147723416Y-118690822D01*
X147691562Y-118694867D01*
X147644603Y-118697176D01*
X147614846Y-118697525D01*
X147559352Y-118697306D01*
X147524654Y-118695916D01*
X147506399Y-118692251D01*
X147500234Y-118685210D01*
X147501805Y-118673690D01*
X147503122Y-118669233D01*
X147525618Y-118627355D01*
X147560997Y-118593604D01*
X147592220Y-118578773D01*
X147633699Y-118579668D01*
X147675731Y-118598164D01*
X147710988Y-118628786D01*
X147732146Y-118666062D01*
X147735148Y-118685542D01*
X147862900Y-118685542D01*
X147853310Y-118635229D01*
X147821302Y-118564191D01*
X147775299Y-118508779D01*
X147717179Y-118471009D01*
X147648820Y-118452896D01*
X147572102Y-118456457D01*
G36*
X151004012Y-118469002D02*
G01*
X150972717Y-118483950D01*
X150942409Y-118505541D01*
X150919318Y-118530391D01*
X150902500Y-118562087D01*
X150891006Y-118604214D01*
X150883891Y-118660358D01*
X150880207Y-118734106D01*
X150879008Y-118829044D01*
X150878989Y-118838985D01*
X150878713Y-119062179D01*
X151017030Y-119062179D01*
X151017030Y-118856418D01*
X151017128Y-118780189D01*
X151017809Y-118724939D01*
X151019651Y-118686501D01*
X151023233Y-118660706D01*
X151029132Y-118643384D01*
X151037927Y-118630368D01*
X151050180Y-118617507D01*
X151093047Y-118589873D01*
X151139843Y-118584745D01*
X151184424Y-118602217D01*
X151199928Y-118615221D01*
X151211310Y-118627447D01*
X151219481Y-118640540D01*
X151224974Y-118658615D01*
X151228320Y-118685787D01*
X151230051Y-118726170D01*
X151230697Y-118783879D01*
X151230792Y-118854132D01*
X151230792Y-119062179D01*
X151369109Y-119062179D01*
X151369109Y-118458614D01*
X151299950Y-118458614D01*
X151258428Y-118460256D01*
X151237006Y-118466087D01*
X151230795Y-118477461D01*
X151230792Y-118477798D01*
X151227910Y-118488938D01*
X151215199Y-118487674D01*
X151189926Y-118475434D01*
X151132605Y-118457424D01*
X151067037Y-118455421D01*
X151004012Y-118469002D01*
G37*
X151004012Y-118469002D02*
X150972717Y-118483950D01*
X150942409Y-118505541D01*
X150919318Y-118530391D01*
X150902500Y-118562087D01*
X150891006Y-118604214D01*
X150883891Y-118660358D01*
X150880207Y-118734106D01*
X150879008Y-118829044D01*
X150878989Y-118838985D01*
X150878713Y-119062179D01*
X151017030Y-119062179D01*
X151017030Y-118856418D01*
X151017128Y-118780189D01*
X151017809Y-118724939D01*
X151019651Y-118686501D01*
X151023233Y-118660706D01*
X151029132Y-118643384D01*
X151037927Y-118630368D01*
X151050180Y-118617507D01*
X151093047Y-118589873D01*
X151139843Y-118584745D01*
X151184424Y-118602217D01*
X151199928Y-118615221D01*
X151211310Y-118627447D01*
X151219481Y-118640540D01*
X151224974Y-118658615D01*
X151228320Y-118685787D01*
X151230051Y-118726170D01*
X151230697Y-118783879D01*
X151230792Y-118854132D01*
X151230792Y-119062179D01*
X151369109Y-119062179D01*
X151369109Y-118458614D01*
X151299950Y-118458614D01*
X151258428Y-118460256D01*
X151237006Y-118466087D01*
X151230795Y-118477461D01*
X151230792Y-118477798D01*
X151227910Y-118488938D01*
X151215199Y-118487674D01*
X151189926Y-118475434D01*
X151132605Y-118457424D01*
X151067037Y-118455421D01*
X151004012Y-118469002D01*
G36*
X148450540Y-118458030D02*
G01*
X148407289Y-118471245D01*
X148379442Y-118487941D01*
X148370371Y-118501145D01*
X148372868Y-118516797D01*
X148389069Y-118541385D01*
X148402768Y-118558800D01*
X148431008Y-118590283D01*
X148452225Y-118603529D01*
X148470312Y-118602664D01*
X148523965Y-118589010D01*
X148563370Y-118589630D01*
X148595368Y-118605104D01*
X148606110Y-118614161D01*
X148640495Y-118646027D01*
X148640495Y-119062179D01*
X148778812Y-119062179D01*
X148778812Y-118458614D01*
X148709653Y-118458614D01*
X148668131Y-118460256D01*
X148646709Y-118466087D01*
X148640498Y-118477461D01*
X148640495Y-118477798D01*
X148637561Y-118489713D01*
X148624296Y-118488159D01*
X148605916Y-118479563D01*
X148567954Y-118463568D01*
X148537128Y-118453945D01*
X148497464Y-118451478D01*
X148450540Y-118458030D01*
G37*
X148450540Y-118458030D02*
X148407289Y-118471245D01*
X148379442Y-118487941D01*
X148370371Y-118501145D01*
X148372868Y-118516797D01*
X148389069Y-118541385D01*
X148402768Y-118558800D01*
X148431008Y-118590283D01*
X148452225Y-118603529D01*
X148470312Y-118602664D01*
X148523965Y-118589010D01*
X148563370Y-118589630D01*
X148595368Y-118605104D01*
X148606110Y-118614161D01*
X148640495Y-118646027D01*
X148640495Y-119062179D01*
X148778812Y-119062179D01*
X148778812Y-118458614D01*
X148709653Y-118458614D01*
X148668131Y-118460256D01*
X148646709Y-118466087D01*
X148640498Y-118477461D01*
X148640495Y-118477798D01*
X148637561Y-118489713D01*
X148624296Y-118488159D01*
X148605916Y-118479563D01*
X148567954Y-118463568D01*
X148537128Y-118453945D01*
X148497464Y-118451478D01*
X148450540Y-118458030D01*
G36*
X149873036Y-114290018D02*
G01*
X149816188Y-114591570D01*
X149396662Y-114764512D01*
X149145016Y-114593395D01*
X149074542Y-114545750D01*
X149010837Y-114503210D01*
X148956874Y-114467715D01*
X148915627Y-114441210D01*
X148890066Y-114425636D01*
X148883105Y-114422278D01*
X148870565Y-114430914D01*
X148843769Y-114454792D01*
X148805720Y-114490859D01*
X148759421Y-114536067D01*
X148707877Y-114587364D01*
X148654091Y-114641701D01*
X148601065Y-114696028D01*
X148551805Y-114747295D01*
X148509313Y-114792451D01*
X148476593Y-114828446D01*
X148456649Y-114852230D01*
X148451881Y-114860190D01*
X148458743Y-114874865D01*
X148477980Y-114907014D01*
X148507570Y-114953492D01*
X148545490Y-115011156D01*
X148589718Y-115076860D01*
X148615346Y-115114336D01*
X148662059Y-115182768D01*
X148703568Y-115244520D01*
X148737860Y-115296519D01*
X148762920Y-115335692D01*
X148776736Y-115358965D01*
X148778812Y-115363855D01*
X148774105Y-115377755D01*
X148761277Y-115410150D01*
X148742262Y-115456485D01*
X148718997Y-115512206D01*
X148693416Y-115572758D01*
X148667455Y-115633586D01*
X148643050Y-115690136D01*
X148622137Y-115737852D01*
X148606651Y-115772181D01*
X148598528Y-115788568D01*
X148598048Y-115789212D01*
X148585293Y-115792341D01*
X148551323Y-115799321D01*
X148499660Y-115809467D01*
X148433824Y-115822092D01*
X148357336Y-115836509D01*
X148312710Y-115844823D01*
X148230979Y-115860384D01*
X148157157Y-115875192D01*
X148094979Y-115888436D01*
X148048178Y-115899305D01*
X148020491Y-115906989D01*
X148014926Y-115909427D01*
X148009474Y-115925930D01*
X148005076Y-115963200D01*
X148001728Y-116016880D01*
X147999426Y-116082612D01*
X147998168Y-116156037D01*
X147997952Y-116232796D01*
X147998773Y-116308532D01*
X148000629Y-116378886D01*
X148003518Y-116439500D01*
X148007435Y-116486016D01*
X148012378Y-116514075D01*
X148015343Y-116519916D01*
X148033066Y-116526917D01*
X148070619Y-116536927D01*
X148123036Y-116548769D01*
X148185348Y-116561267D01*
X148207100Y-116565310D01*
X148311976Y-116584520D01*
X148394820Y-116599991D01*
X148458370Y-116612337D01*
X148505363Y-116622173D01*
X148538537Y-116630114D01*
X148560629Y-116636776D01*
X148574376Y-116642773D01*
X148582516Y-116648719D01*
X148583655Y-116649894D01*
X148595023Y-116668826D01*
X148612365Y-116705669D01*
X148633950Y-116755913D01*
X148658046Y-116815046D01*
X148682921Y-116878556D01*
X148706843Y-116941932D01*
X148728081Y-117000662D01*
X148744903Y-117050235D01*
X148755578Y-117086139D01*
X148758373Y-117103862D01*
X148758140Y-117104483D01*
X148748669Y-117118970D01*
X148727182Y-117150844D01*
X148695937Y-117196789D01*
X148657193Y-117253485D01*
X148613207Y-117317617D01*
X148600681Y-117335842D01*
X148556016Y-117401914D01*
X148516712Y-117462200D01*
X148484912Y-117513235D01*
X148462755Y-117551560D01*
X148452383Y-117573711D01*
X148451881Y-117576432D01*
X148460595Y-117590736D01*
X148484675Y-117619072D01*
X148521024Y-117658396D01*
X148566547Y-117705661D01*
X148618148Y-117757823D01*
X148672733Y-117811835D01*
X148727206Y-117864653D01*
X148778471Y-117913231D01*
X148823433Y-117954523D01*
X148858996Y-117985485D01*
X148882065Y-118003070D01*
X148888446Y-118005941D01*
X148903301Y-117999178D01*
X148933714Y-117980939D01*
X148974732Y-117954297D01*
X149006291Y-117932852D01*
X149063475Y-117893503D01*
X149131194Y-117847171D01*
X149199120Y-117800913D01*
X149235639Y-117776155D01*
X149359248Y-117692547D01*
X149463009Y-117748650D01*
X149510280Y-117773228D01*
X149550477Y-117792331D01*
X149577674Y-117803227D01*
X149584598Y-117804743D01*
X149592923Y-117793549D01*
X149609346Y-117761917D01*
X149632643Y-117712765D01*
X149661586Y-117649010D01*
X149694950Y-117573571D01*
X149731509Y-117489364D01*
X149770036Y-117399308D01*
X149809306Y-117306321D01*
X149848092Y-117213320D01*
X149885170Y-117123223D01*
X149919311Y-117038948D01*
X149949292Y-116963413D01*
X149973884Y-116899534D01*
X149991864Y-116850231D01*
X150002003Y-116818421D01*
X150003634Y-116807496D01*
X149990709Y-116793561D01*
X149962411Y-116770940D01*
X149924654Y-116744333D01*
X149921485Y-116742228D01*
X149823900Y-116664114D01*
X149745214Y-116572982D01*
X149686109Y-116471745D01*
X149647268Y-116363318D01*
X149629372Y-116250614D01*
X149633103Y-116136548D01*
X149659143Y-116024034D01*
X149708175Y-115915985D01*
X149722600Y-115892345D01*
X149797631Y-115796887D01*
X149886270Y-115720232D01*
X149985451Y-115662780D01*
X150092105Y-115624929D01*
X150203164Y-115607078D01*
X150315561Y-115609625D01*
X150426227Y-115632970D01*
X150532094Y-115677510D01*
X150630095Y-115743645D01*
X150660410Y-115770487D01*
X150737562Y-115854512D01*
X150793782Y-115942966D01*
X150832347Y-116042115D01*
X150853826Y-116140303D01*
X150859128Y-116250697D01*
X150841448Y-116361640D01*
X150802581Y-116469381D01*
X150744323Y-116570169D01*
X150668469Y-116660256D01*
X150576817Y-116735892D01*
X150564772Y-116743864D01*
X150526611Y-116769974D01*
X150497601Y-116792595D01*
X150483732Y-116807039D01*
X150483531Y-116807496D01*
X150486508Y-116823121D01*
X150498311Y-116858582D01*
X150517714Y-116910962D01*
X150543488Y-116977345D01*
X150574409Y-117054814D01*
X150609249Y-117140450D01*
X150646783Y-117231337D01*
X150685783Y-117324559D01*
X150725023Y-117417197D01*
X150763276Y-117506335D01*
X150799317Y-117589055D01*
X150831917Y-117662441D01*
X150859852Y-117723575D01*
X150881895Y-117769541D01*
X150896818Y-117797421D01*
X150902828Y-117804743D01*
X150921191Y-117799041D01*
X150955552Y-117783749D01*
X150999984Y-117761599D01*
X151024417Y-117748650D01*
X151128178Y-117692547D01*
X151251787Y-117776155D01*
X151314886Y-117818987D01*
X151383970Y-117866122D01*
X151448707Y-117910503D01*
X151481134Y-117932852D01*
X151526741Y-117963477D01*
X151565360Y-117987747D01*
X151591952Y-118002587D01*
X151600590Y-118005724D01*
X151613161Y-117997261D01*
X151640984Y-117973636D01*
X151681361Y-117937302D01*
X151731595Y-117890711D01*
X151788988Y-117836317D01*
X151825286Y-117801392D01*
X151888790Y-117738996D01*
X151943673Y-117683188D01*
X151987714Y-117636354D01*
X152018695Y-117600882D01*
X152034398Y-117579161D01*
X152035905Y-117574752D01*
X152028914Y-117557985D01*
X152009594Y-117524082D01*
X151980091Y-117476476D01*
X151942545Y-117418599D01*
X151899100Y-117353884D01*
X151886745Y-117335842D01*
X151841727Y-117270267D01*
X151801340Y-117211228D01*
X151767840Y-117162042D01*
X151743486Y-117126028D01*
X151730536Y-117106502D01*
X151729285Y-117104483D01*
X151731156Y-117088922D01*
X151741087Y-117054709D01*
X151757347Y-117006355D01*
X151778205Y-116948371D01*
X151801927Y-116885270D01*
X151826784Y-116821563D01*
X151851042Y-116761761D01*
X151872971Y-116710376D01*
X151890838Y-116671919D01*
X151902913Y-116650902D01*
X151903771Y-116649894D01*
X151911154Y-116643888D01*
X151923625Y-116637948D01*
X151943920Y-116631460D01*
X151974778Y-116623809D01*
X152018934Y-116614380D01*
X152079126Y-116602559D01*
X152158093Y-116587729D01*
X152258570Y-116569277D01*
X152280325Y-116565310D01*
X152344802Y-116552853D01*
X152401011Y-116540666D01*
X152443987Y-116529926D01*
X152468760Y-116521809D01*
X152472082Y-116519916D01*
X152477556Y-116503138D01*
X152482006Y-116465645D01*
X152485428Y-116411794D01*
X152487819Y-116345944D01*
X152489177Y-116272453D01*
X152489499Y-116195680D01*
X152488781Y-116119983D01*
X152487021Y-116049720D01*
X152484216Y-115989250D01*
X152480362Y-115942930D01*
X152475457Y-115915119D01*
X152472500Y-115909427D01*
X152456037Y-115903686D01*
X152418551Y-115894345D01*
X152363775Y-115882215D01*
X152295445Y-115868107D01*
X152217294Y-115852830D01*
X152174716Y-115844823D01*
X152093929Y-115829721D01*
X152021887Y-115816040D01*
X151962111Y-115804467D01*
X151918121Y-115795687D01*
X151893439Y-115790387D01*
X151889377Y-115789212D01*
X151882511Y-115775965D01*
X151867998Y-115744057D01*
X151847771Y-115698047D01*
X151823766Y-115642492D01*
X151797918Y-115581953D01*
X151772160Y-115520986D01*
X151748427Y-115464151D01*
X151728654Y-115416006D01*
X151714776Y-115381110D01*
X151708726Y-115364021D01*
X151708614Y-115363274D01*
X151715472Y-115349793D01*
X151734698Y-115318770D01*
X151764272Y-115273289D01*
X151802173Y-115216432D01*
X151846380Y-115151283D01*
X151872079Y-115113862D01*
X151918907Y-115045247D01*
X151960499Y-114982952D01*
X151994825Y-114930129D01*
X152019857Y-114889927D01*
X152033565Y-114865500D01*
X152035544Y-114860024D01*
X152027034Y-114847278D01*
X152003507Y-114820063D01*
X151967968Y-114781428D01*
X151923423Y-114734423D01*
X151872877Y-114682095D01*
X151819336Y-114627495D01*
X151765805Y-114573670D01*
X151715289Y-114523670D01*
X151670794Y-114480543D01*
X151635325Y-114447339D01*
X151611887Y-114427106D01*
X151604046Y-114422278D01*
X151591280Y-114429067D01*
X151560744Y-114448142D01*
X151515410Y-114477561D01*
X151458244Y-114515381D01*
X151392216Y-114559661D01*
X151342410Y-114593395D01*
X151090764Y-114764512D01*
X150881001Y-114678041D01*
X150671237Y-114591570D01*
X150614389Y-114290018D01*
X150557540Y-113988466D01*
X149929885Y-113988466D01*
X149873036Y-114290018D01*
G37*
X149873036Y-114290018D02*
X149816188Y-114591570D01*
X149396662Y-114764512D01*
X149145016Y-114593395D01*
X149074542Y-114545750D01*
X149010837Y-114503210D01*
X148956874Y-114467715D01*
X148915627Y-114441210D01*
X148890066Y-114425636D01*
X148883105Y-114422278D01*
X148870565Y-114430914D01*
X148843769Y-114454792D01*
X148805720Y-114490859D01*
X148759421Y-114536067D01*
X148707877Y-114587364D01*
X148654091Y-114641701D01*
X148601065Y-114696028D01*
X148551805Y-114747295D01*
X148509313Y-114792451D01*
X148476593Y-114828446D01*
X148456649Y-114852230D01*
X148451881Y-114860190D01*
X148458743Y-114874865D01*
X148477980Y-114907014D01*
X148507570Y-114953492D01*
X148545490Y-115011156D01*
X148589718Y-115076860D01*
X148615346Y-115114336D01*
X148662059Y-115182768D01*
X148703568Y-115244520D01*
X148737860Y-115296519D01*
X148762920Y-115335692D01*
X148776736Y-115358965D01*
X148778812Y-115363855D01*
X148774105Y-115377755D01*
X148761277Y-115410150D01*
X148742262Y-115456485D01*
X148718997Y-115512206D01*
X148693416Y-115572758D01*
X148667455Y-115633586D01*
X148643050Y-115690136D01*
X148622137Y-115737852D01*
X148606651Y-115772181D01*
X148598528Y-115788568D01*
X148598048Y-115789212D01*
X148585293Y-115792341D01*
X148551323Y-115799321D01*
X148499660Y-115809467D01*
X148433824Y-115822092D01*
X148357336Y-115836509D01*
X148312710Y-115844823D01*
X148230979Y-115860384D01*
X148157157Y-115875192D01*
X148094979Y-115888436D01*
X148048178Y-115899305D01*
X148020491Y-115906989D01*
X148014926Y-115909427D01*
X148009474Y-115925930D01*
X148005076Y-115963200D01*
X148001728Y-116016880D01*
X147999426Y-116082612D01*
X147998168Y-116156037D01*
X147997952Y-116232796D01*
X147998773Y-116308532D01*
X148000629Y-116378886D01*
X148003518Y-116439500D01*
X148007435Y-116486016D01*
X148012378Y-116514075D01*
X148015343Y-116519916D01*
X148033066Y-116526917D01*
X148070619Y-116536927D01*
X148123036Y-116548769D01*
X148185348Y-116561267D01*
X148207100Y-116565310D01*
X148311976Y-116584520D01*
X148394820Y-116599991D01*
X148458370Y-116612337D01*
X148505363Y-116622173D01*
X148538537Y-116630114D01*
X148560629Y-116636776D01*
X148574376Y-116642773D01*
X148582516Y-116648719D01*
X148583655Y-116649894D01*
X148595023Y-116668826D01*
X148612365Y-116705669D01*
X148633950Y-116755913D01*
X148658046Y-116815046D01*
X148682921Y-116878556D01*
X148706843Y-116941932D01*
X148728081Y-117000662D01*
X148744903Y-117050235D01*
X148755578Y-117086139D01*
X148758373Y-117103862D01*
X148758140Y-117104483D01*
X148748669Y-117118970D01*
X148727182Y-117150844D01*
X148695937Y-117196789D01*
X148657193Y-117253485D01*
X148613207Y-117317617D01*
X148600681Y-117335842D01*
X148556016Y-117401914D01*
X148516712Y-117462200D01*
X148484912Y-117513235D01*
X148462755Y-117551560D01*
X148452383Y-117573711D01*
X148451881Y-117576432D01*
X148460595Y-117590736D01*
X148484675Y-117619072D01*
X148521024Y-117658396D01*
X148566547Y-117705661D01*
X148618148Y-117757823D01*
X148672733Y-117811835D01*
X148727206Y-117864653D01*
X148778471Y-117913231D01*
X148823433Y-117954523D01*
X148858996Y-117985485D01*
X148882065Y-118003070D01*
X148888446Y-118005941D01*
X148903301Y-117999178D01*
X148933714Y-117980939D01*
X148974732Y-117954297D01*
X149006291Y-117932852D01*
X149063475Y-117893503D01*
X149131194Y-117847171D01*
X149199120Y-117800913D01*
X149235639Y-117776155D01*
X149359248Y-117692547D01*
X149463009Y-117748650D01*
X149510280Y-117773228D01*
X149550477Y-117792331D01*
X149577674Y-117803227D01*
X149584598Y-117804743D01*
X149592923Y-117793549D01*
X149609346Y-117761917D01*
X149632643Y-117712765D01*
X149661586Y-117649010D01*
X149694950Y-117573571D01*
X149731509Y-117489364D01*
X149770036Y-117399308D01*
X149809306Y-117306321D01*
X149848092Y-117213320D01*
X149885170Y-117123223D01*
X149919311Y-117038948D01*
X149949292Y-116963413D01*
X149973884Y-116899534D01*
X149991864Y-116850231D01*
X150002003Y-116818421D01*
X150003634Y-116807496D01*
X149990709Y-116793561D01*
X149962411Y-116770940D01*
X149924654Y-116744333D01*
X149921485Y-116742228D01*
X149823900Y-116664114D01*
X149745214Y-116572982D01*
X149686109Y-116471745D01*
X149647268Y-116363318D01*
X149629372Y-116250614D01*
X149633103Y-116136548D01*
X149659143Y-116024034D01*
X149708175Y-115915985D01*
X149722600Y-115892345D01*
X149797631Y-115796887D01*
X149886270Y-115720232D01*
X149985451Y-115662780D01*
X150092105Y-115624929D01*
X150203164Y-115607078D01*
X150315561Y-115609625D01*
X150426227Y-115632970D01*
X150532094Y-115677510D01*
X150630095Y-115743645D01*
X150660410Y-115770487D01*
X150737562Y-115854512D01*
X150793782Y-115942966D01*
X150832347Y-116042115D01*
X150853826Y-116140303D01*
X150859128Y-116250697D01*
X150841448Y-116361640D01*
X150802581Y-116469381D01*
X150744323Y-116570169D01*
X150668469Y-116660256D01*
X150576817Y-116735892D01*
X150564772Y-116743864D01*
X150526611Y-116769974D01*
X150497601Y-116792595D01*
X150483732Y-116807039D01*
X150483531Y-116807496D01*
X150486508Y-116823121D01*
X150498311Y-116858582D01*
X150517714Y-116910962D01*
X150543488Y-116977345D01*
X150574409Y-117054814D01*
X150609249Y-117140450D01*
X150646783Y-117231337D01*
X150685783Y-117324559D01*
X150725023Y-117417197D01*
X150763276Y-117506335D01*
X150799317Y-117589055D01*
X150831917Y-117662441D01*
X150859852Y-117723575D01*
X150881895Y-117769541D01*
X150896818Y-117797421D01*
X150902828Y-117804743D01*
X150921191Y-117799041D01*
X150955552Y-117783749D01*
X150999984Y-117761599D01*
X151024417Y-117748650D01*
X151128178Y-117692547D01*
X151251787Y-117776155D01*
X151314886Y-117818987D01*
X151383970Y-117866122D01*
X151448707Y-117910503D01*
X151481134Y-117932852D01*
X151526741Y-117963477D01*
X151565360Y-117987747D01*
X151591952Y-118002587D01*
X151600590Y-118005724D01*
X151613161Y-117997261D01*
X151640984Y-117973636D01*
X151681361Y-117937302D01*
X151731595Y-117890711D01*
X151788988Y-117836317D01*
X151825286Y-117801392D01*
X151888790Y-117738996D01*
X151943673Y-117683188D01*
X151987714Y-117636354D01*
X152018695Y-117600882D01*
X152034398Y-117579161D01*
X152035905Y-117574752D01*
X152028914Y-117557985D01*
X152009594Y-117524082D01*
X151980091Y-117476476D01*
X151942545Y-117418599D01*
X151899100Y-117353884D01*
X151886745Y-117335842D01*
X151841727Y-117270267D01*
X151801340Y-117211228D01*
X151767840Y-117162042D01*
X151743486Y-117126028D01*
X151730536Y-117106502D01*
X151729285Y-117104483D01*
X151731156Y-117088922D01*
X151741087Y-117054709D01*
X151757347Y-117006355D01*
X151778205Y-116948371D01*
X151801927Y-116885270D01*
X151826784Y-116821563D01*
X151851042Y-116761761D01*
X151872971Y-116710376D01*
X151890838Y-116671919D01*
X151902913Y-116650902D01*
X151903771Y-116649894D01*
X151911154Y-116643888D01*
X151923625Y-116637948D01*
X151943920Y-116631460D01*
X151974778Y-116623809D01*
X152018934Y-116614380D01*
X152079126Y-116602559D01*
X152158093Y-116587729D01*
X152258570Y-116569277D01*
X152280325Y-116565310D01*
X152344802Y-116552853D01*
X152401011Y-116540666D01*
X152443987Y-116529926D01*
X152468760Y-116521809D01*
X152472082Y-116519916D01*
X152477556Y-116503138D01*
X152482006Y-116465645D01*
X152485428Y-116411794D01*
X152487819Y-116345944D01*
X152489177Y-116272453D01*
X152489499Y-116195680D01*
X152488781Y-116119983D01*
X152487021Y-116049720D01*
X152484216Y-115989250D01*
X152480362Y-115942930D01*
X152475457Y-115915119D01*
X152472500Y-115909427D01*
X152456037Y-115903686D01*
X152418551Y-115894345D01*
X152363775Y-115882215D01*
X152295445Y-115868107D01*
X152217294Y-115852830D01*
X152174716Y-115844823D01*
X152093929Y-115829721D01*
X152021887Y-115816040D01*
X151962111Y-115804467D01*
X151918121Y-115795687D01*
X151893439Y-115790387D01*
X151889377Y-115789212D01*
X151882511Y-115775965D01*
X151867998Y-115744057D01*
X151847771Y-115698047D01*
X151823766Y-115642492D01*
X151797918Y-115581953D01*
X151772160Y-115520986D01*
X151748427Y-115464151D01*
X151728654Y-115416006D01*
X151714776Y-115381110D01*
X151708726Y-115364021D01*
X151708614Y-115363274D01*
X151715472Y-115349793D01*
X151734698Y-115318770D01*
X151764272Y-115273289D01*
X151802173Y-115216432D01*
X151846380Y-115151283D01*
X151872079Y-115113862D01*
X151918907Y-115045247D01*
X151960499Y-114982952D01*
X151994825Y-114930129D01*
X152019857Y-114889927D01*
X152033565Y-114865500D01*
X152035544Y-114860024D01*
X152027034Y-114847278D01*
X152003507Y-114820063D01*
X151967968Y-114781428D01*
X151923423Y-114734423D01*
X151872877Y-114682095D01*
X151819336Y-114627495D01*
X151765805Y-114573670D01*
X151715289Y-114523670D01*
X151670794Y-114480543D01*
X151635325Y-114447339D01*
X151611887Y-114427106D01*
X151604046Y-114422278D01*
X151591280Y-114429067D01*
X151560744Y-114448142D01*
X151515410Y-114477561D01*
X151458244Y-114515381D01*
X151392216Y-114559661D01*
X151342410Y-114593395D01*
X151090764Y-114764512D01*
X150881001Y-114678041D01*
X150671237Y-114591570D01*
X150614389Y-114290018D01*
X150557540Y-113988466D01*
X149929885Y-113988466D01*
X149873036Y-114290018D01*
D12*
%TO.C,J1*%
X147170000Y-113330000D02*
X148500000Y-113330000D01*
X147170000Y-112000000D02*
X147170000Y-113330000D01*
X147170000Y-110730000D02*
X149830000Y-110730000D01*
X149830000Y-110730000D02*
X149830000Y-110670000D01*
X147170000Y-110730000D02*
X147170000Y-110670000D01*
X147170000Y-110670000D02*
X149830000Y-110670000D01*
%TO.C,J3*%
X167170000Y-115670000D02*
X169830000Y-115670000D01*
X167170000Y-115730000D02*
X167170000Y-115670000D01*
X169830000Y-115730000D02*
X169830000Y-115670000D01*
X167170000Y-115730000D02*
X169830000Y-115730000D01*
X167170000Y-117000000D02*
X167170000Y-118330000D01*
X167170000Y-118330000D02*
X168500000Y-118330000D01*
%TO.C,Q1*%
X153740000Y-118530000D02*
X155200000Y-118530000D01*
X153740000Y-115370000D02*
X155900000Y-115370000D01*
X153740000Y-115370000D02*
X153740000Y-116300000D01*
X153740000Y-118530000D02*
X153740000Y-117600000D01*
%TO.C,J2*%
X147170000Y-123330000D02*
X148500000Y-123330000D01*
X147170000Y-122000000D02*
X147170000Y-123330000D01*
X147170000Y-120730000D02*
X149830000Y-120730000D01*
X149830000Y-120730000D02*
X149830000Y-120670000D01*
X147170000Y-120730000D02*
X147170000Y-120670000D01*
X147170000Y-120670000D02*
X149830000Y-120670000D01*
%TO.C,Q1*%
D10*
X154595238Y-114997619D02*
X154690476Y-114950000D01*
X154785714Y-114854761D01*
X154928571Y-114711904D01*
X155023809Y-114664285D01*
X155119047Y-114664285D01*
X155071428Y-114902380D02*
X155166666Y-114854761D01*
X155261904Y-114759523D01*
X155309523Y-114569047D01*
X155309523Y-114235714D01*
X155261904Y-114045238D01*
X155166666Y-113950000D01*
X155071428Y-113902380D01*
X154880952Y-113902380D01*
X154785714Y-113950000D01*
X154690476Y-114045238D01*
X154642857Y-114235714D01*
X154642857Y-114569047D01*
X154690476Y-114759523D01*
X154785714Y-114854761D01*
X154880952Y-114902380D01*
X155071428Y-114902380D01*
X153690476Y-114902380D02*
X154261904Y-114902380D01*
X153976190Y-114902380D02*
X153976190Y-113902380D01*
X154071428Y-114045238D01*
X154166666Y-114140476D01*
X154261904Y-114188095D01*
%TD*%
M02*
