%TF.GenerationSoftware,KiCad,Pcbnew,(5.1.6)-1*%
%TF.CreationDate,2022-09-21T11:03:18-04:00*%
%TF.ProjectId,Amiga-CR1220,416d6967-612d-4435-9231-3232302e6b69,rev?*%
%TF.SameCoordinates,Original*%
%TF.FileFunction,Profile,NP*%
%FSLAX46Y46*%
G04 Gerber Fmt 4.6, Leading zero omitted, Abs format (unit mm)*
G04 Created by KiCad (PCBNEW (5.1.6)-1) date 2022-09-21 11:03:18*
%MOMM*%
%LPD*%
G01*
G04 APERTURE LIST*
%TA.AperFunction,Profile*%
%ADD10C,0.050000*%
%TD*%
G04 APERTURE END LIST*
D10*
X163000000Y-123500000D02*
X169000000Y-120500000D01*
X162000000Y-122000000D02*
X163000000Y-122000000D01*
X163000000Y-110500000D02*
X169000000Y-113500000D01*
X162000000Y-112000000D02*
X163000000Y-112000000D01*
X163000000Y-112000000D02*
X163000000Y-110500000D01*
X158000000Y-112000000D02*
X162000000Y-112000000D01*
X163000000Y-122000000D02*
X163000000Y-123500000D01*
X158000000Y-122000000D02*
X162000000Y-122000000D01*
X158000000Y-110500000D02*
X158000000Y-112000000D01*
X158000000Y-123500000D02*
X158000000Y-122000000D01*
X156000000Y-110500000D02*
X158000000Y-110500000D01*
X156000000Y-123500000D02*
X158000000Y-123500000D01*
X171000000Y-120500000D02*
X169000000Y-120500000D01*
X171000000Y-113500000D02*
X169000000Y-113500000D01*
X171000000Y-119000000D02*
X171000000Y-120500000D01*
X172750000Y-119000000D02*
X171000000Y-119000000D01*
X171000000Y-115000000D02*
X171000000Y-113500000D01*
X172750000Y-115000000D02*
X171000000Y-115000000D01*
X172750000Y-115000000D02*
X172750000Y-119000000D01*
X147000000Y-123500000D02*
X156000000Y-123500000D01*
X147000000Y-110500000D02*
X156000000Y-110500000D01*
X147000000Y-123500000D02*
X147000000Y-110500000D01*
M02*
